<mxfile host="Electron" agent="Mozilla/5.0 (Windows NT 10.0; Win64; x64) AppleWebKit/537.36 (KHTML, like Gecko) draw.io/26.0.4 Chrome/128.0.6613.186 Electron/32.2.5 Safari/537.36" version="26.0.4">
  <diagram name="Page-1" id="BS2jFkup_TnkrznCCIdL">
    <mxGraphModel dx="3800" dy="2105" grid="1" gridSize="10" guides="1" tooltips="1" connect="1" arrows="1" fold="1" page="1" pageScale="1" pageWidth="1654" pageHeight="1169" math="0" shadow="0">
      <root>
        <mxCell id="0" />
        <mxCell id="1" parent="0" />
        <mxCell id="Md-qzRlcw9HbPaRJXL9A-397" style="edgeStyle=orthogonalEdgeStyle;rounded=0;orthogonalLoop=1;jettySize=auto;html=1;exitX=0.5;exitY=1;exitDx=0;exitDy=0;entryX=0;entryY=0.5;entryDx=0;entryDy=0;" edge="1" parent="1" source="Md-qzRlcw9HbPaRJXL9A-1" target="Md-qzRlcw9HbPaRJXL9A-165">
          <mxGeometry relative="1" as="geometry" />
        </mxCell>
        <mxCell id="Md-qzRlcw9HbPaRJXL9A-1" value="des_data [53]" style="text;html=1;align=center;verticalAlign=middle;whiteSpace=wrap;rounded=0;" vertex="1" parent="1">
          <mxGeometry x="10" y="-30" width="60" height="30" as="geometry" />
        </mxCell>
        <mxCell id="Md-qzRlcw9HbPaRJXL9A-398" style="edgeStyle=orthogonalEdgeStyle;rounded=0;orthogonalLoop=1;jettySize=auto;html=1;exitX=0.5;exitY=1;exitDx=0;exitDy=0;entryX=0;entryY=0.5;entryDx=0;entryDy=0;" edge="1" parent="1" source="Md-qzRlcw9HbPaRJXL9A-2" target="Md-qzRlcw9HbPaRJXL9A-163">
          <mxGeometry relative="1" as="geometry" />
        </mxCell>
        <mxCell id="Md-qzRlcw9HbPaRJXL9A-2" value="des_data [52]" style="text;html=1;align=center;verticalAlign=middle;whiteSpace=wrap;rounded=0;" vertex="1" parent="1">
          <mxGeometry x="70" y="-30" width="60" height="30" as="geometry" />
        </mxCell>
        <mxCell id="Md-qzRlcw9HbPaRJXL9A-401" style="edgeStyle=orthogonalEdgeStyle;rounded=0;orthogonalLoop=1;jettySize=auto;html=1;exitX=0.5;exitY=1;exitDx=0;exitDy=0;entryX=0;entryY=0.5;entryDx=0;entryDy=0;" edge="1" parent="1" source="Md-qzRlcw9HbPaRJXL9A-3" target="Md-qzRlcw9HbPaRJXL9A-159">
          <mxGeometry relative="1" as="geometry" />
        </mxCell>
        <mxCell id="Md-qzRlcw9HbPaRJXL9A-3" value="des_data [49]" style="text;html=1;align=center;verticalAlign=middle;whiteSpace=wrap;rounded=0;" vertex="1" parent="1">
          <mxGeometry x="250" y="-30" width="60" height="30" as="geometry" />
        </mxCell>
        <mxCell id="Md-qzRlcw9HbPaRJXL9A-400" style="edgeStyle=orthogonalEdgeStyle;rounded=0;orthogonalLoop=1;jettySize=auto;html=1;exitX=0.5;exitY=1;exitDx=0;exitDy=0;entryX=0;entryY=0.5;entryDx=0;entryDy=0;" edge="1" parent="1" source="Md-qzRlcw9HbPaRJXL9A-4" target="Md-qzRlcw9HbPaRJXL9A-154">
          <mxGeometry relative="1" as="geometry" />
        </mxCell>
        <mxCell id="Md-qzRlcw9HbPaRJXL9A-4" value="des_data [50]" style="text;html=1;align=center;verticalAlign=middle;whiteSpace=wrap;rounded=0;" vertex="1" parent="1">
          <mxGeometry x="190" y="-30" width="60" height="30" as="geometry" />
        </mxCell>
        <mxCell id="Md-qzRlcw9HbPaRJXL9A-399" style="edgeStyle=orthogonalEdgeStyle;rounded=0;orthogonalLoop=1;jettySize=auto;html=1;exitX=0.5;exitY=1;exitDx=0;exitDy=0;entryX=0;entryY=0.5;entryDx=0;entryDy=0;" edge="1" parent="1" source="Md-qzRlcw9HbPaRJXL9A-5" target="Md-qzRlcw9HbPaRJXL9A-161">
          <mxGeometry relative="1" as="geometry" />
        </mxCell>
        <mxCell id="Md-qzRlcw9HbPaRJXL9A-5" value="des_data [51]" style="text;html=1;align=center;verticalAlign=middle;whiteSpace=wrap;rounded=0;" vertex="1" parent="1">
          <mxGeometry x="130" y="-30" width="60" height="30" as="geometry" />
        </mxCell>
        <mxCell id="Md-qzRlcw9HbPaRJXL9A-403" style="edgeStyle=orthogonalEdgeStyle;rounded=0;orthogonalLoop=1;jettySize=auto;html=1;exitX=0.5;exitY=1;exitDx=0;exitDy=0;entryX=0;entryY=0.5;entryDx=0;entryDy=0;" edge="1" parent="1" source="Md-qzRlcw9HbPaRJXL9A-6" target="Md-qzRlcw9HbPaRJXL9A-156">
          <mxGeometry relative="1" as="geometry" />
        </mxCell>
        <mxCell id="Md-qzRlcw9HbPaRJXL9A-6" value="des_data [47]" style="text;html=1;align=center;verticalAlign=middle;whiteSpace=wrap;rounded=0;" vertex="1" parent="1">
          <mxGeometry x="370" y="-30" width="60" height="30" as="geometry" />
        </mxCell>
        <mxCell id="Md-qzRlcw9HbPaRJXL9A-402" style="edgeStyle=orthogonalEdgeStyle;rounded=0;orthogonalLoop=1;jettySize=auto;html=1;exitX=0.5;exitY=1;exitDx=0;exitDy=0;entryX=0;entryY=0.5;entryDx=0;entryDy=0;" edge="1" parent="1" source="Md-qzRlcw9HbPaRJXL9A-7" target="Md-qzRlcw9HbPaRJXL9A-157">
          <mxGeometry relative="1" as="geometry" />
        </mxCell>
        <mxCell id="Md-qzRlcw9HbPaRJXL9A-7" value="des_data [48]" style="text;html=1;align=center;verticalAlign=middle;whiteSpace=wrap;rounded=0;" vertex="1" parent="1">
          <mxGeometry x="310" y="-30" width="60" height="30" as="geometry" />
        </mxCell>
        <mxCell id="Md-qzRlcw9HbPaRJXL9A-404" style="edgeStyle=orthogonalEdgeStyle;rounded=0;orthogonalLoop=1;jettySize=auto;html=1;exitX=0.5;exitY=1;exitDx=0;exitDy=0;entryX=0;entryY=0.5;entryDx=0;entryDy=0;" edge="1" parent="1" source="Md-qzRlcw9HbPaRJXL9A-8" target="Md-qzRlcw9HbPaRJXL9A-152">
          <mxGeometry relative="1" as="geometry" />
        </mxCell>
        <mxCell id="Md-qzRlcw9HbPaRJXL9A-8" value="des_data [46]" style="text;html=1;align=center;verticalAlign=middle;whiteSpace=wrap;rounded=0;" vertex="1" parent="1">
          <mxGeometry x="430" y="-30" width="60" height="30" as="geometry" />
        </mxCell>
        <mxCell id="Md-qzRlcw9HbPaRJXL9A-407" style="edgeStyle=orthogonalEdgeStyle;rounded=0;orthogonalLoop=1;jettySize=auto;html=1;exitX=0.5;exitY=1;exitDx=0;exitDy=0;entryX=0;entryY=0.5;entryDx=0;entryDy=0;" edge="1" parent="1" source="Md-qzRlcw9HbPaRJXL9A-9" target="Md-qzRlcw9HbPaRJXL9A-148">
          <mxGeometry relative="1" as="geometry" />
        </mxCell>
        <mxCell id="Md-qzRlcw9HbPaRJXL9A-9" value="des_data [44]" style="text;html=1;align=center;verticalAlign=middle;whiteSpace=wrap;rounded=0;" vertex="1" parent="1">
          <mxGeometry x="550" y="-30" width="60" height="30" as="geometry" />
        </mxCell>
        <mxCell id="Md-qzRlcw9HbPaRJXL9A-405" style="edgeStyle=orthogonalEdgeStyle;rounded=0;orthogonalLoop=1;jettySize=auto;html=1;exitX=0.5;exitY=1;exitDx=0;exitDy=0;entryX=0;entryY=0.5;entryDx=0;entryDy=0;" edge="1" parent="1" source="Md-qzRlcw9HbPaRJXL9A-10" target="Md-qzRlcw9HbPaRJXL9A-150">
          <mxGeometry relative="1" as="geometry" />
        </mxCell>
        <mxCell id="Md-qzRlcw9HbPaRJXL9A-10" value="des_data [45]" style="text;html=1;align=center;verticalAlign=middle;whiteSpace=wrap;rounded=0;" vertex="1" parent="1">
          <mxGeometry x="490" y="-30" width="60" height="30" as="geometry" />
        </mxCell>
        <mxCell id="Md-qzRlcw9HbPaRJXL9A-408" style="edgeStyle=orthogonalEdgeStyle;rounded=0;orthogonalLoop=1;jettySize=auto;html=1;exitX=0.5;exitY=1;exitDx=0;exitDy=0;entryX=0;entryY=0.5;entryDx=0;entryDy=0;" edge="1" parent="1" source="Md-qzRlcw9HbPaRJXL9A-11" target="Md-qzRlcw9HbPaRJXL9A-126">
          <mxGeometry relative="1" as="geometry" />
        </mxCell>
        <mxCell id="Md-qzRlcw9HbPaRJXL9A-11" value="des_data [43]" style="text;html=1;align=center;verticalAlign=middle;whiteSpace=wrap;rounded=0;" vertex="1" parent="1">
          <mxGeometry x="610" y="-30" width="60" height="30" as="geometry" />
        </mxCell>
        <mxCell id="Md-qzRlcw9HbPaRJXL9A-409" style="edgeStyle=orthogonalEdgeStyle;rounded=0;orthogonalLoop=1;jettySize=auto;html=1;exitX=0.5;exitY=1;exitDx=0;exitDy=0;entryX=0;entryY=0.5;entryDx=0;entryDy=0;" edge="1" parent="1" source="Md-qzRlcw9HbPaRJXL9A-12" target="Md-qzRlcw9HbPaRJXL9A-128">
          <mxGeometry relative="1" as="geometry" />
        </mxCell>
        <mxCell id="Md-qzRlcw9HbPaRJXL9A-12" value="des_data [42]" style="text;html=1;align=center;verticalAlign=middle;whiteSpace=wrap;rounded=0;" vertex="1" parent="1">
          <mxGeometry x="670" y="-30" width="60" height="30" as="geometry" />
        </mxCell>
        <mxCell id="Md-qzRlcw9HbPaRJXL9A-410" style="edgeStyle=orthogonalEdgeStyle;rounded=0;orthogonalLoop=1;jettySize=auto;html=1;exitX=0.5;exitY=1;exitDx=0;exitDy=0;entryX=0;entryY=0.5;entryDx=0;entryDy=0;" edge="1" parent="1" source="Md-qzRlcw9HbPaRJXL9A-13" target="Md-qzRlcw9HbPaRJXL9A-130">
          <mxGeometry relative="1" as="geometry" />
        </mxCell>
        <mxCell id="Md-qzRlcw9HbPaRJXL9A-13" value="des_data [41]" style="text;html=1;align=center;verticalAlign=middle;whiteSpace=wrap;rounded=0;" vertex="1" parent="1">
          <mxGeometry x="730" y="-30" width="60" height="30" as="geometry" />
        </mxCell>
        <mxCell id="Md-qzRlcw9HbPaRJXL9A-411" style="edgeStyle=orthogonalEdgeStyle;rounded=0;orthogonalLoop=1;jettySize=auto;html=1;exitX=0.5;exitY=1;exitDx=0;exitDy=0;entryX=0;entryY=0.5;entryDx=0;entryDy=0;" edge="1" parent="1" source="Md-qzRlcw9HbPaRJXL9A-14" target="Md-qzRlcw9HbPaRJXL9A-131">
          <mxGeometry relative="1" as="geometry" />
        </mxCell>
        <mxCell id="Md-qzRlcw9HbPaRJXL9A-14" value="des_data [40]" style="text;html=1;align=center;verticalAlign=middle;whiteSpace=wrap;rounded=0;" vertex="1" parent="1">
          <mxGeometry x="790" y="-30" width="60" height="30" as="geometry" />
        </mxCell>
        <mxCell id="Md-qzRlcw9HbPaRJXL9A-412" style="edgeStyle=orthogonalEdgeStyle;rounded=0;orthogonalLoop=1;jettySize=auto;html=1;exitX=0.5;exitY=1;exitDx=0;exitDy=0;entryX=0;entryY=0.5;entryDx=0;entryDy=0;" edge="1" parent="1" source="Md-qzRlcw9HbPaRJXL9A-15" target="Md-qzRlcw9HbPaRJXL9A-146">
          <mxGeometry relative="1" as="geometry" />
        </mxCell>
        <mxCell id="Md-qzRlcw9HbPaRJXL9A-15" value="des_data [39]" style="text;html=1;align=center;verticalAlign=middle;whiteSpace=wrap;rounded=0;" vertex="1" parent="1">
          <mxGeometry x="850" y="-30" width="60" height="30" as="geometry" />
        </mxCell>
        <mxCell id="Md-qzRlcw9HbPaRJXL9A-413" style="edgeStyle=orthogonalEdgeStyle;rounded=0;orthogonalLoop=1;jettySize=auto;html=1;exitX=0.5;exitY=1;exitDx=0;exitDy=0;entryX=0;entryY=0.5;entryDx=0;entryDy=0;" edge="1" parent="1" source="Md-qzRlcw9HbPaRJXL9A-16" target="Md-qzRlcw9HbPaRJXL9A-144">
          <mxGeometry relative="1" as="geometry" />
        </mxCell>
        <mxCell id="Md-qzRlcw9HbPaRJXL9A-16" value="des_data [38]" style="text;html=1;align=center;verticalAlign=middle;whiteSpace=wrap;rounded=0;" vertex="1" parent="1">
          <mxGeometry x="910" y="-30" width="60" height="30" as="geometry" />
        </mxCell>
        <mxCell id="Md-qzRlcw9HbPaRJXL9A-414" style="edgeStyle=orthogonalEdgeStyle;rounded=0;orthogonalLoop=1;jettySize=auto;html=1;exitX=0.5;exitY=1;exitDx=0;exitDy=0;entryX=0;entryY=0.5;entryDx=0;entryDy=0;" edge="1" parent="1" source="Md-qzRlcw9HbPaRJXL9A-17" target="Md-qzRlcw9HbPaRJXL9A-142">
          <mxGeometry relative="1" as="geometry" />
        </mxCell>
        <mxCell id="Md-qzRlcw9HbPaRJXL9A-17" value="des_data [37]" style="text;html=1;align=center;verticalAlign=middle;whiteSpace=wrap;rounded=0;" vertex="1" parent="1">
          <mxGeometry x="970" y="-30" width="60" height="30" as="geometry" />
        </mxCell>
        <mxCell id="Md-qzRlcw9HbPaRJXL9A-396" style="edgeStyle=orthogonalEdgeStyle;rounded=0;orthogonalLoop=1;jettySize=auto;html=1;exitX=0.5;exitY=1;exitDx=0;exitDy=0;entryX=0;entryY=0.5;entryDx=0;entryDy=0;" edge="1" parent="1" source="Md-qzRlcw9HbPaRJXL9A-18" target="Md-qzRlcw9HbPaRJXL9A-167">
          <mxGeometry relative="1" as="geometry" />
        </mxCell>
        <mxCell id="Md-qzRlcw9HbPaRJXL9A-18" value="des_data [54]" style="text;html=1;align=center;verticalAlign=middle;whiteSpace=wrap;rounded=0;" vertex="1" parent="1">
          <mxGeometry x="-50" y="-30" width="60" height="30" as="geometry" />
        </mxCell>
        <mxCell id="Md-qzRlcw9HbPaRJXL9A-395" style="edgeStyle=orthogonalEdgeStyle;rounded=0;orthogonalLoop=1;jettySize=auto;html=1;exitX=0.5;exitY=1;exitDx=0;exitDy=0;entryX=0;entryY=0.5;entryDx=0;entryDy=0;" edge="1" parent="1" source="Md-qzRlcw9HbPaRJXL9A-19" target="Md-qzRlcw9HbPaRJXL9A-169">
          <mxGeometry relative="1" as="geometry" />
        </mxCell>
        <mxCell id="Md-qzRlcw9HbPaRJXL9A-19" value="des_data [55]" style="text;html=1;align=center;verticalAlign=middle;whiteSpace=wrap;rounded=0;" vertex="1" parent="1">
          <mxGeometry x="-110" y="-30" width="60" height="30" as="geometry" />
        </mxCell>
        <mxCell id="Md-qzRlcw9HbPaRJXL9A-394" style="edgeStyle=orthogonalEdgeStyle;rounded=0;orthogonalLoop=1;jettySize=auto;html=1;exitX=0.5;exitY=1;exitDx=0;exitDy=0;entryX=0;entryY=0.5;entryDx=0;entryDy=0;" edge="1" parent="1" source="Md-qzRlcw9HbPaRJXL9A-20" target="Md-qzRlcw9HbPaRJXL9A-170">
          <mxGeometry relative="1" as="geometry" />
        </mxCell>
        <mxCell id="Md-qzRlcw9HbPaRJXL9A-20" value="des_data [56]" style="text;html=1;align=center;verticalAlign=middle;whiteSpace=wrap;rounded=0;" vertex="1" parent="1">
          <mxGeometry x="-170" y="-30" width="60" height="30" as="geometry" />
        </mxCell>
        <mxCell id="Md-qzRlcw9HbPaRJXL9A-393" style="edgeStyle=orthogonalEdgeStyle;rounded=0;orthogonalLoop=1;jettySize=auto;html=1;exitX=0.5;exitY=1;exitDx=0;exitDy=0;entryX=0;entryY=0.5;entryDx=0;entryDy=0;" edge="1" parent="1" source="Md-qzRlcw9HbPaRJXL9A-21" target="Md-qzRlcw9HbPaRJXL9A-172">
          <mxGeometry relative="1" as="geometry" />
        </mxCell>
        <mxCell id="Md-qzRlcw9HbPaRJXL9A-21" value="des_data [57]" style="text;html=1;align=center;verticalAlign=middle;whiteSpace=wrap;rounded=0;" vertex="1" parent="1">
          <mxGeometry x="-230" y="-30" width="60" height="30" as="geometry" />
        </mxCell>
        <mxCell id="Md-qzRlcw9HbPaRJXL9A-392" style="edgeStyle=orthogonalEdgeStyle;rounded=0;orthogonalLoop=1;jettySize=auto;html=1;exitX=0.5;exitY=1;exitDx=0;exitDy=0;entryX=0;entryY=0.5;entryDx=0;entryDy=0;" edge="1" parent="1" source="Md-qzRlcw9HbPaRJXL9A-22" target="Md-qzRlcw9HbPaRJXL9A-174">
          <mxGeometry relative="1" as="geometry" />
        </mxCell>
        <mxCell id="Md-qzRlcw9HbPaRJXL9A-22" value="des_data [58]" style="text;html=1;align=center;verticalAlign=middle;whiteSpace=wrap;rounded=0;" vertex="1" parent="1">
          <mxGeometry x="-290" y="-30" width="60" height="30" as="geometry" />
        </mxCell>
        <mxCell id="Md-qzRlcw9HbPaRJXL9A-415" style="edgeStyle=orthogonalEdgeStyle;rounded=0;orthogonalLoop=1;jettySize=auto;html=1;exitX=0.5;exitY=1;exitDx=0;exitDy=0;entryX=0;entryY=0.5;entryDx=0;entryDy=0;" edge="1" parent="1" source="Md-qzRlcw9HbPaRJXL9A-23" target="Md-qzRlcw9HbPaRJXL9A-140">
          <mxGeometry relative="1" as="geometry" />
        </mxCell>
        <mxCell id="Md-qzRlcw9HbPaRJXL9A-23" value="des_data [36]" style="text;html=1;align=center;verticalAlign=middle;whiteSpace=wrap;rounded=0;" vertex="1" parent="1">
          <mxGeometry x="1030" y="-30" width="60" height="30" as="geometry" />
        </mxCell>
        <mxCell id="Md-qzRlcw9HbPaRJXL9A-390" style="edgeStyle=orthogonalEdgeStyle;rounded=0;orthogonalLoop=1;jettySize=auto;html=1;exitX=0.5;exitY=1;exitDx=0;exitDy=0;entryX=0;entryY=0.5;entryDx=0;entryDy=0;" edge="1" parent="1" source="Md-qzRlcw9HbPaRJXL9A-24" target="Md-qzRlcw9HbPaRJXL9A-178">
          <mxGeometry relative="1" as="geometry" />
        </mxCell>
        <mxCell id="Md-qzRlcw9HbPaRJXL9A-24" value="des_data [60]" style="text;html=1;align=center;verticalAlign=middle;whiteSpace=wrap;rounded=0;" vertex="1" parent="1">
          <mxGeometry x="-410" y="-30" width="60" height="30" as="geometry" />
        </mxCell>
        <mxCell id="Md-qzRlcw9HbPaRJXL9A-388" style="edgeStyle=orthogonalEdgeStyle;rounded=0;orthogonalLoop=1;jettySize=auto;html=1;exitX=0.5;exitY=1;exitDx=0;exitDy=0;entryX=0;entryY=0.5;entryDx=0;entryDy=0;" edge="1" parent="1" source="Md-qzRlcw9HbPaRJXL9A-25" target="Md-qzRlcw9HbPaRJXL9A-180">
          <mxGeometry relative="1" as="geometry" />
        </mxCell>
        <mxCell id="Md-qzRlcw9HbPaRJXL9A-25" value="des_data [61]" style="text;html=1;align=center;verticalAlign=middle;whiteSpace=wrap;rounded=0;" vertex="1" parent="1">
          <mxGeometry x="-470" y="-30" width="60" height="30" as="geometry" />
        </mxCell>
        <mxCell id="Md-qzRlcw9HbPaRJXL9A-391" style="edgeStyle=orthogonalEdgeStyle;rounded=0;orthogonalLoop=1;jettySize=auto;html=1;exitX=0.5;exitY=1;exitDx=0;exitDy=0;entryX=0;entryY=0.5;entryDx=0;entryDy=0;" edge="1" parent="1" source="Md-qzRlcw9HbPaRJXL9A-26" target="Md-qzRlcw9HbPaRJXL9A-176">
          <mxGeometry relative="1" as="geometry" />
        </mxCell>
        <mxCell id="Md-qzRlcw9HbPaRJXL9A-26" value="des_data [59]" style="text;html=1;align=center;verticalAlign=middle;whiteSpace=wrap;rounded=0;" vertex="1" parent="1">
          <mxGeometry x="-350" y="-30" width="60" height="30" as="geometry" />
        </mxCell>
        <mxCell id="Md-qzRlcw9HbPaRJXL9A-386" style="edgeStyle=orthogonalEdgeStyle;rounded=0;orthogonalLoop=1;jettySize=auto;html=1;exitX=0.5;exitY=1;exitDx=0;exitDy=0;entryX=0;entryY=0.5;entryDx=0;entryDy=0;" edge="1" parent="1" source="Md-qzRlcw9HbPaRJXL9A-27" target="Md-qzRlcw9HbPaRJXL9A-122">
          <mxGeometry relative="1" as="geometry" />
        </mxCell>
        <mxCell id="Md-qzRlcw9HbPaRJXL9A-27" value="des_data [63]" style="text;html=1;align=center;verticalAlign=middle;whiteSpace=wrap;rounded=0;" vertex="1" parent="1">
          <mxGeometry x="-590" y="-30" width="60" height="30" as="geometry" />
        </mxCell>
        <mxCell id="Md-qzRlcw9HbPaRJXL9A-416" style="edgeStyle=orthogonalEdgeStyle;rounded=0;orthogonalLoop=1;jettySize=auto;html=1;exitX=0.5;exitY=1;exitDx=0;exitDy=0;entryX=0;entryY=0.5;entryDx=0;entryDy=0;" edge="1" parent="1" source="Md-qzRlcw9HbPaRJXL9A-28" target="Md-qzRlcw9HbPaRJXL9A-138">
          <mxGeometry relative="1" as="geometry" />
        </mxCell>
        <mxCell id="Md-qzRlcw9HbPaRJXL9A-28" value="des_data [35]" style="text;html=1;align=center;verticalAlign=middle;whiteSpace=wrap;rounded=0;" vertex="1" parent="1">
          <mxGeometry x="1090" y="-30" width="60" height="30" as="geometry" />
        </mxCell>
        <mxCell id="Md-qzRlcw9HbPaRJXL9A-387" style="edgeStyle=orthogonalEdgeStyle;rounded=0;orthogonalLoop=1;jettySize=auto;html=1;exitX=0.5;exitY=1;exitDx=0;exitDy=0;entryX=0;entryY=0.5;entryDx=0;entryDy=0;" edge="1" parent="1" source="Md-qzRlcw9HbPaRJXL9A-29" target="Md-qzRlcw9HbPaRJXL9A-124">
          <mxGeometry relative="1" as="geometry" />
        </mxCell>
        <mxCell id="Md-qzRlcw9HbPaRJXL9A-29" value="des_data [62]" style="text;html=1;align=center;verticalAlign=middle;whiteSpace=wrap;rounded=0;" vertex="1" parent="1">
          <mxGeometry x="-530" y="-30" width="60" height="30" as="geometry" />
        </mxCell>
        <mxCell id="Md-qzRlcw9HbPaRJXL9A-418" style="edgeStyle=orthogonalEdgeStyle;rounded=0;orthogonalLoop=1;jettySize=auto;html=1;exitX=0.5;exitY=1;exitDx=0;exitDy=0;entryX=0;entryY=0.5;entryDx=0;entryDy=0;" edge="1" parent="1" source="Md-qzRlcw9HbPaRJXL9A-30" target="Md-qzRlcw9HbPaRJXL9A-134">
          <mxGeometry relative="1" as="geometry" />
        </mxCell>
        <mxCell id="Md-qzRlcw9HbPaRJXL9A-30" value="des_data [33]" style="text;html=1;align=center;verticalAlign=middle;whiteSpace=wrap;rounded=0;" vertex="1" parent="1">
          <mxGeometry x="1210" y="-30" width="60" height="30" as="geometry" />
        </mxCell>
        <mxCell id="Md-qzRlcw9HbPaRJXL9A-417" style="edgeStyle=orthogonalEdgeStyle;rounded=0;orthogonalLoop=1;jettySize=auto;html=1;exitX=0.5;exitY=1;exitDx=0;exitDy=0;entryX=0;entryY=0.5;entryDx=0;entryDy=0;" edge="1" parent="1" source="Md-qzRlcw9HbPaRJXL9A-31" target="Md-qzRlcw9HbPaRJXL9A-136">
          <mxGeometry relative="1" as="geometry" />
        </mxCell>
        <mxCell id="Md-qzRlcw9HbPaRJXL9A-31" value="des_data [34]" style="text;html=1;align=center;verticalAlign=middle;whiteSpace=wrap;rounded=0;" vertex="1" parent="1">
          <mxGeometry x="1150" y="-30" width="60" height="30" as="geometry" />
        </mxCell>
        <mxCell id="Md-qzRlcw9HbPaRJXL9A-419" style="edgeStyle=orthogonalEdgeStyle;rounded=0;orthogonalLoop=1;jettySize=auto;html=1;exitX=0.5;exitY=1;exitDx=0;exitDy=0;entryX=0;entryY=0.5;entryDx=0;entryDy=0;" edge="1" parent="1" source="Md-qzRlcw9HbPaRJXL9A-32" target="Md-qzRlcw9HbPaRJXL9A-132">
          <mxGeometry relative="1" as="geometry" />
        </mxCell>
        <mxCell id="Md-qzRlcw9HbPaRJXL9A-32" value="des_data [32]" style="text;html=1;align=center;verticalAlign=middle;whiteSpace=wrap;rounded=0;" vertex="1" parent="1">
          <mxGeometry x="1270" y="-30" width="60" height="30" as="geometry" />
        </mxCell>
        <mxCell id="Md-qzRlcw9HbPaRJXL9A-441" style="edgeStyle=orthogonalEdgeStyle;rounded=0;orthogonalLoop=1;jettySize=auto;html=1;exitX=0.5;exitY=0;exitDx=0;exitDy=0;entryX=0;entryY=0.5;entryDx=0;entryDy=0;" edge="1" parent="1" source="Md-qzRlcw9HbPaRJXL9A-33" target="Md-qzRlcw9HbPaRJXL9A-225">
          <mxGeometry relative="1" as="geometry" />
        </mxCell>
        <mxCell id="Md-qzRlcw9HbPaRJXL9A-33" value="des_data [21]" style="text;html=1;align=center;verticalAlign=middle;whiteSpace=wrap;rounded=0;" vertex="1" parent="1">
          <mxGeometry x="10" y="760" width="60" height="30" as="geometry" />
        </mxCell>
        <mxCell id="Md-qzRlcw9HbPaRJXL9A-440" style="edgeStyle=orthogonalEdgeStyle;rounded=0;orthogonalLoop=1;jettySize=auto;html=1;exitX=0.5;exitY=0;exitDx=0;exitDy=0;entryX=0;entryY=0.5;entryDx=0;entryDy=0;" edge="1" parent="1" source="Md-qzRlcw9HbPaRJXL9A-34" target="Md-qzRlcw9HbPaRJXL9A-223">
          <mxGeometry relative="1" as="geometry" />
        </mxCell>
        <mxCell id="Md-qzRlcw9HbPaRJXL9A-34" value="des_data [20]" style="text;html=1;align=center;verticalAlign=middle;whiteSpace=wrap;rounded=0;" vertex="1" parent="1">
          <mxGeometry x="70" y="760" width="60" height="30" as="geometry" />
        </mxCell>
        <mxCell id="Md-qzRlcw9HbPaRJXL9A-437" style="edgeStyle=orthogonalEdgeStyle;rounded=0;orthogonalLoop=1;jettySize=auto;html=1;exitX=0.5;exitY=0;exitDx=0;exitDy=0;entryX=0;entryY=0.5;entryDx=0;entryDy=0;" edge="1" parent="1" source="Md-qzRlcw9HbPaRJXL9A-35" target="Md-qzRlcw9HbPaRJXL9A-219">
          <mxGeometry relative="1" as="geometry" />
        </mxCell>
        <mxCell id="Md-qzRlcw9HbPaRJXL9A-35" value="des_data [17]" style="text;html=1;align=center;verticalAlign=middle;whiteSpace=wrap;rounded=0;" vertex="1" parent="1">
          <mxGeometry x="250" y="760" width="60" height="30" as="geometry" />
        </mxCell>
        <mxCell id="Md-qzRlcw9HbPaRJXL9A-438" style="edgeStyle=orthogonalEdgeStyle;rounded=0;orthogonalLoop=1;jettySize=auto;html=1;exitX=0.5;exitY=0;exitDx=0;exitDy=0;entryX=0;entryY=0.5;entryDx=0;entryDy=0;" edge="1" parent="1" source="Md-qzRlcw9HbPaRJXL9A-36" target="Md-qzRlcw9HbPaRJXL9A-214">
          <mxGeometry relative="1" as="geometry" />
        </mxCell>
        <mxCell id="Md-qzRlcw9HbPaRJXL9A-36" value="des_data [18]" style="text;html=1;align=center;verticalAlign=middle;whiteSpace=wrap;rounded=0;" vertex="1" parent="1">
          <mxGeometry x="190" y="760" width="60" height="30" as="geometry" />
        </mxCell>
        <mxCell id="Md-qzRlcw9HbPaRJXL9A-439" style="edgeStyle=orthogonalEdgeStyle;rounded=0;orthogonalLoop=1;jettySize=auto;html=1;exitX=0.5;exitY=0;exitDx=0;exitDy=0;entryX=0;entryY=0.5;entryDx=0;entryDy=0;" edge="1" parent="1" source="Md-qzRlcw9HbPaRJXL9A-37" target="Md-qzRlcw9HbPaRJXL9A-221">
          <mxGeometry relative="1" as="geometry" />
        </mxCell>
        <mxCell id="Md-qzRlcw9HbPaRJXL9A-37" value="des_data [19]" style="text;html=1;align=center;verticalAlign=middle;whiteSpace=wrap;rounded=0;" vertex="1" parent="1">
          <mxGeometry x="130" y="760" width="60" height="30" as="geometry" />
        </mxCell>
        <mxCell id="Md-qzRlcw9HbPaRJXL9A-435" style="edgeStyle=orthogonalEdgeStyle;rounded=0;orthogonalLoop=1;jettySize=auto;html=1;exitX=0.5;exitY=0;exitDx=0;exitDy=0;entryX=0;entryY=0.5;entryDx=0;entryDy=0;" edge="1" parent="1" source="Md-qzRlcw9HbPaRJXL9A-38" target="Md-qzRlcw9HbPaRJXL9A-216">
          <mxGeometry relative="1" as="geometry" />
        </mxCell>
        <mxCell id="Md-qzRlcw9HbPaRJXL9A-38" value="des_data [15]" style="text;html=1;align=center;verticalAlign=middle;whiteSpace=wrap;rounded=0;" vertex="1" parent="1">
          <mxGeometry x="370" y="760" width="60" height="30" as="geometry" />
        </mxCell>
        <mxCell id="Md-qzRlcw9HbPaRJXL9A-436" style="edgeStyle=orthogonalEdgeStyle;rounded=0;orthogonalLoop=1;jettySize=auto;html=1;exitX=0.5;exitY=0;exitDx=0;exitDy=0;entryX=0;entryY=0.5;entryDx=0;entryDy=0;" edge="1" parent="1" source="Md-qzRlcw9HbPaRJXL9A-39" target="Md-qzRlcw9HbPaRJXL9A-217">
          <mxGeometry relative="1" as="geometry" />
        </mxCell>
        <mxCell id="Md-qzRlcw9HbPaRJXL9A-39" value="des_data [16]" style="text;html=1;align=center;verticalAlign=middle;whiteSpace=wrap;rounded=0;" vertex="1" parent="1">
          <mxGeometry x="310" y="760" width="60" height="30" as="geometry" />
        </mxCell>
        <mxCell id="Md-qzRlcw9HbPaRJXL9A-434" style="edgeStyle=orthogonalEdgeStyle;rounded=0;orthogonalLoop=1;jettySize=auto;html=1;exitX=0.5;exitY=0;exitDx=0;exitDy=0;entryX=0;entryY=0.5;entryDx=0;entryDy=0;" edge="1" parent="1" source="Md-qzRlcw9HbPaRJXL9A-40" target="Md-qzRlcw9HbPaRJXL9A-212">
          <mxGeometry relative="1" as="geometry" />
        </mxCell>
        <mxCell id="Md-qzRlcw9HbPaRJXL9A-40" value="des_data [14]" style="text;html=1;align=center;verticalAlign=middle;whiteSpace=wrap;rounded=0;" vertex="1" parent="1">
          <mxGeometry x="430" y="760" width="60" height="30" as="geometry" />
        </mxCell>
        <mxCell id="Md-qzRlcw9HbPaRJXL9A-432" style="edgeStyle=orthogonalEdgeStyle;rounded=0;orthogonalLoop=1;jettySize=auto;html=1;exitX=0.5;exitY=0;exitDx=0;exitDy=0;entryX=0;entryY=0.5;entryDx=0;entryDy=0;" edge="1" parent="1" source="Md-qzRlcw9HbPaRJXL9A-41" target="Md-qzRlcw9HbPaRJXL9A-208">
          <mxGeometry relative="1" as="geometry" />
        </mxCell>
        <mxCell id="Md-qzRlcw9HbPaRJXL9A-41" value="des_data [12]" style="text;html=1;align=center;verticalAlign=middle;whiteSpace=wrap;rounded=0;" vertex="1" parent="1">
          <mxGeometry x="550" y="760" width="60" height="30" as="geometry" />
        </mxCell>
        <mxCell id="Md-qzRlcw9HbPaRJXL9A-433" style="edgeStyle=orthogonalEdgeStyle;rounded=0;orthogonalLoop=1;jettySize=auto;html=1;exitX=0.5;exitY=0;exitDx=0;exitDy=0;entryX=0;entryY=0.5;entryDx=0;entryDy=0;" edge="1" parent="1" source="Md-qzRlcw9HbPaRJXL9A-42" target="Md-qzRlcw9HbPaRJXL9A-210">
          <mxGeometry relative="1" as="geometry" />
        </mxCell>
        <mxCell id="Md-qzRlcw9HbPaRJXL9A-42" value="des_data [13]" style="text;html=1;align=center;verticalAlign=middle;whiteSpace=wrap;rounded=0;" vertex="1" parent="1">
          <mxGeometry x="490" y="760" width="60" height="30" as="geometry" />
        </mxCell>
        <mxCell id="Md-qzRlcw9HbPaRJXL9A-431" style="edgeStyle=orthogonalEdgeStyle;rounded=0;orthogonalLoop=1;jettySize=auto;html=1;exitX=0.5;exitY=0;exitDx=0;exitDy=0;entryX=0;entryY=0.5;entryDx=0;entryDy=0;" edge="1" parent="1" source="Md-qzRlcw9HbPaRJXL9A-43" target="Md-qzRlcw9HbPaRJXL9A-186">
          <mxGeometry relative="1" as="geometry" />
        </mxCell>
        <mxCell id="Md-qzRlcw9HbPaRJXL9A-43" value="des_data [11]" style="text;html=1;align=center;verticalAlign=middle;whiteSpace=wrap;rounded=0;" vertex="1" parent="1">
          <mxGeometry x="610" y="760" width="60" height="30" as="geometry" />
        </mxCell>
        <mxCell id="Md-qzRlcw9HbPaRJXL9A-430" style="edgeStyle=orthogonalEdgeStyle;rounded=0;orthogonalLoop=1;jettySize=auto;html=1;exitX=0.5;exitY=0;exitDx=0;exitDy=0;entryX=0;entryY=0.5;entryDx=0;entryDy=0;" edge="1" parent="1" source="Md-qzRlcw9HbPaRJXL9A-44" target="Md-qzRlcw9HbPaRJXL9A-188">
          <mxGeometry relative="1" as="geometry" />
        </mxCell>
        <mxCell id="Md-qzRlcw9HbPaRJXL9A-44" value="des_data [10]" style="text;html=1;align=center;verticalAlign=middle;whiteSpace=wrap;rounded=0;" vertex="1" parent="1">
          <mxGeometry x="670" y="760" width="60" height="30" as="geometry" />
        </mxCell>
        <mxCell id="Md-qzRlcw9HbPaRJXL9A-429" style="edgeStyle=orthogonalEdgeStyle;rounded=0;orthogonalLoop=1;jettySize=auto;html=1;exitX=0.5;exitY=0;exitDx=0;exitDy=0;entryX=0;entryY=0.5;entryDx=0;entryDy=0;" edge="1" parent="1" source="Md-qzRlcw9HbPaRJXL9A-45" target="Md-qzRlcw9HbPaRJXL9A-190">
          <mxGeometry relative="1" as="geometry" />
        </mxCell>
        <mxCell id="Md-qzRlcw9HbPaRJXL9A-45" value="des_data [9]" style="text;html=1;align=center;verticalAlign=middle;whiteSpace=wrap;rounded=0;" vertex="1" parent="1">
          <mxGeometry x="730" y="760" width="60" height="30" as="geometry" />
        </mxCell>
        <mxCell id="Md-qzRlcw9HbPaRJXL9A-428" style="edgeStyle=orthogonalEdgeStyle;rounded=0;orthogonalLoop=1;jettySize=auto;html=1;exitX=0.5;exitY=0;exitDx=0;exitDy=0;entryX=0;entryY=0.5;entryDx=0;entryDy=0;" edge="1" parent="1" source="Md-qzRlcw9HbPaRJXL9A-46" target="Md-qzRlcw9HbPaRJXL9A-191">
          <mxGeometry relative="1" as="geometry" />
        </mxCell>
        <mxCell id="Md-qzRlcw9HbPaRJXL9A-46" value="des_data [8]" style="text;html=1;align=center;verticalAlign=middle;whiteSpace=wrap;rounded=0;" vertex="1" parent="1">
          <mxGeometry x="790" y="760" width="60" height="30" as="geometry" />
        </mxCell>
        <mxCell id="Md-qzRlcw9HbPaRJXL9A-427" style="edgeStyle=orthogonalEdgeStyle;rounded=0;orthogonalLoop=1;jettySize=auto;html=1;exitX=0.5;exitY=0;exitDx=0;exitDy=0;entryX=0;entryY=0.5;entryDx=0;entryDy=0;" edge="1" parent="1" source="Md-qzRlcw9HbPaRJXL9A-47" target="Md-qzRlcw9HbPaRJXL9A-206">
          <mxGeometry relative="1" as="geometry" />
        </mxCell>
        <mxCell id="Md-qzRlcw9HbPaRJXL9A-47" value="des_data [7]" style="text;html=1;align=center;verticalAlign=middle;whiteSpace=wrap;rounded=0;" vertex="1" parent="1">
          <mxGeometry x="850" y="760" width="60" height="30" as="geometry" />
        </mxCell>
        <mxCell id="Md-qzRlcw9HbPaRJXL9A-426" style="edgeStyle=orthogonalEdgeStyle;rounded=0;orthogonalLoop=1;jettySize=auto;html=1;exitX=0.5;exitY=0;exitDx=0;exitDy=0;entryX=0;entryY=0.5;entryDx=0;entryDy=0;" edge="1" parent="1" source="Md-qzRlcw9HbPaRJXL9A-48" target="Md-qzRlcw9HbPaRJXL9A-204">
          <mxGeometry relative="1" as="geometry" />
        </mxCell>
        <mxCell id="Md-qzRlcw9HbPaRJXL9A-48" value="des_data [6]" style="text;html=1;align=center;verticalAlign=middle;whiteSpace=wrap;rounded=0;" vertex="1" parent="1">
          <mxGeometry x="910" y="760" width="60" height="30" as="geometry" />
        </mxCell>
        <mxCell id="Md-qzRlcw9HbPaRJXL9A-425" style="edgeStyle=orthogonalEdgeStyle;rounded=0;orthogonalLoop=1;jettySize=auto;html=1;exitX=0.5;exitY=0;exitDx=0;exitDy=0;entryX=0;entryY=0.5;entryDx=0;entryDy=0;" edge="1" parent="1" source="Md-qzRlcw9HbPaRJXL9A-49" target="Md-qzRlcw9HbPaRJXL9A-202">
          <mxGeometry relative="1" as="geometry" />
        </mxCell>
        <mxCell id="Md-qzRlcw9HbPaRJXL9A-49" value="des_data [5]" style="text;html=1;align=center;verticalAlign=middle;whiteSpace=wrap;rounded=0;" vertex="1" parent="1">
          <mxGeometry x="970" y="760" width="60" height="30" as="geometry" />
        </mxCell>
        <mxCell id="Md-qzRlcw9HbPaRJXL9A-442" style="edgeStyle=orthogonalEdgeStyle;rounded=0;orthogonalLoop=1;jettySize=auto;html=1;exitX=0.5;exitY=0;exitDx=0;exitDy=0;entryX=0;entryY=0.5;entryDx=0;entryDy=0;" edge="1" parent="1" source="Md-qzRlcw9HbPaRJXL9A-50" target="Md-qzRlcw9HbPaRJXL9A-227">
          <mxGeometry relative="1" as="geometry" />
        </mxCell>
        <mxCell id="Md-qzRlcw9HbPaRJXL9A-50" value="des_data [22]" style="text;html=1;align=center;verticalAlign=middle;whiteSpace=wrap;rounded=0;" vertex="1" parent="1">
          <mxGeometry x="-50" y="760" width="60" height="30" as="geometry" />
        </mxCell>
        <mxCell id="Md-qzRlcw9HbPaRJXL9A-443" style="edgeStyle=orthogonalEdgeStyle;rounded=0;orthogonalLoop=1;jettySize=auto;html=1;exitX=0.5;exitY=0;exitDx=0;exitDy=0;entryX=0;entryY=0.5;entryDx=0;entryDy=0;" edge="1" parent="1" source="Md-qzRlcw9HbPaRJXL9A-51" target="Md-qzRlcw9HbPaRJXL9A-229">
          <mxGeometry relative="1" as="geometry" />
        </mxCell>
        <mxCell id="Md-qzRlcw9HbPaRJXL9A-51" value="des_data [23]" style="text;html=1;align=center;verticalAlign=middle;whiteSpace=wrap;rounded=0;" vertex="1" parent="1">
          <mxGeometry x="-110" y="760" width="60" height="30" as="geometry" />
        </mxCell>
        <mxCell id="Md-qzRlcw9HbPaRJXL9A-444" style="edgeStyle=orthogonalEdgeStyle;rounded=0;orthogonalLoop=1;jettySize=auto;html=1;exitX=0.5;exitY=0;exitDx=0;exitDy=0;entryX=0;entryY=0.5;entryDx=0;entryDy=0;" edge="1" parent="1" source="Md-qzRlcw9HbPaRJXL9A-52" target="Md-qzRlcw9HbPaRJXL9A-230">
          <mxGeometry relative="1" as="geometry" />
        </mxCell>
        <mxCell id="Md-qzRlcw9HbPaRJXL9A-52" value="des_data [24]" style="text;html=1;align=center;verticalAlign=middle;whiteSpace=wrap;rounded=0;" vertex="1" parent="1">
          <mxGeometry x="-170" y="760" width="60" height="30" as="geometry" />
        </mxCell>
        <mxCell id="Md-qzRlcw9HbPaRJXL9A-445" style="edgeStyle=orthogonalEdgeStyle;rounded=0;orthogonalLoop=1;jettySize=auto;html=1;exitX=0.5;exitY=0;exitDx=0;exitDy=0;entryX=0;entryY=0.5;entryDx=0;entryDy=0;" edge="1" parent="1" source="Md-qzRlcw9HbPaRJXL9A-53" target="Md-qzRlcw9HbPaRJXL9A-232">
          <mxGeometry relative="1" as="geometry" />
        </mxCell>
        <mxCell id="Md-qzRlcw9HbPaRJXL9A-53" value="des_data [25]" style="text;html=1;align=center;verticalAlign=middle;whiteSpace=wrap;rounded=0;" vertex="1" parent="1">
          <mxGeometry x="-230" y="760" width="60" height="30" as="geometry" />
        </mxCell>
        <mxCell id="Md-qzRlcw9HbPaRJXL9A-446" style="edgeStyle=orthogonalEdgeStyle;rounded=0;orthogonalLoop=1;jettySize=auto;html=1;exitX=0.5;exitY=0;exitDx=0;exitDy=0;entryX=0;entryY=0.5;entryDx=0;entryDy=0;" edge="1" parent="1" source="Md-qzRlcw9HbPaRJXL9A-54" target="Md-qzRlcw9HbPaRJXL9A-234">
          <mxGeometry relative="1" as="geometry" />
        </mxCell>
        <mxCell id="Md-qzRlcw9HbPaRJXL9A-54" value="des_data [26]" style="text;html=1;align=center;verticalAlign=middle;whiteSpace=wrap;rounded=0;" vertex="1" parent="1">
          <mxGeometry x="-290" y="760" width="60" height="30" as="geometry" />
        </mxCell>
        <mxCell id="Md-qzRlcw9HbPaRJXL9A-424" style="edgeStyle=orthogonalEdgeStyle;rounded=0;orthogonalLoop=1;jettySize=auto;html=1;exitX=0.5;exitY=0;exitDx=0;exitDy=0;entryX=0;entryY=0.5;entryDx=0;entryDy=0;" edge="1" parent="1" source="Md-qzRlcw9HbPaRJXL9A-55" target="Md-qzRlcw9HbPaRJXL9A-200">
          <mxGeometry relative="1" as="geometry" />
        </mxCell>
        <mxCell id="Md-qzRlcw9HbPaRJXL9A-55" value="des_data [4]" style="text;html=1;align=center;verticalAlign=middle;whiteSpace=wrap;rounded=0;" vertex="1" parent="1">
          <mxGeometry x="1030" y="760" width="60" height="30" as="geometry" />
        </mxCell>
        <mxCell id="Md-qzRlcw9HbPaRJXL9A-448" style="edgeStyle=orthogonalEdgeStyle;rounded=0;orthogonalLoop=1;jettySize=auto;html=1;exitX=0.5;exitY=0;exitDx=0;exitDy=0;entryX=0;entryY=0.5;entryDx=0;entryDy=0;" edge="1" parent="1" source="Md-qzRlcw9HbPaRJXL9A-56" target="Md-qzRlcw9HbPaRJXL9A-238">
          <mxGeometry relative="1" as="geometry" />
        </mxCell>
        <mxCell id="Md-qzRlcw9HbPaRJXL9A-56" value="des_data [28]" style="text;html=1;align=center;verticalAlign=middle;whiteSpace=wrap;rounded=0;" vertex="1" parent="1">
          <mxGeometry x="-410" y="760" width="60" height="30" as="geometry" />
        </mxCell>
        <mxCell id="Md-qzRlcw9HbPaRJXL9A-449" style="edgeStyle=orthogonalEdgeStyle;rounded=0;orthogonalLoop=1;jettySize=auto;html=1;exitX=0.5;exitY=0;exitDx=0;exitDy=0;entryX=0;entryY=0.5;entryDx=0;entryDy=0;" edge="1" parent="1" source="Md-qzRlcw9HbPaRJXL9A-57" target="Md-qzRlcw9HbPaRJXL9A-240">
          <mxGeometry relative="1" as="geometry" />
        </mxCell>
        <mxCell id="Md-qzRlcw9HbPaRJXL9A-57" value="des_data [29]" style="text;html=1;align=center;verticalAlign=middle;whiteSpace=wrap;rounded=0;" vertex="1" parent="1">
          <mxGeometry x="-470" y="760" width="60" height="30" as="geometry" />
        </mxCell>
        <mxCell id="Md-qzRlcw9HbPaRJXL9A-447" style="edgeStyle=orthogonalEdgeStyle;rounded=0;orthogonalLoop=1;jettySize=auto;html=1;exitX=0.5;exitY=0;exitDx=0;exitDy=0;entryX=0;entryY=0.5;entryDx=0;entryDy=0;" edge="1" parent="1" source="Md-qzRlcw9HbPaRJXL9A-58" target="Md-qzRlcw9HbPaRJXL9A-236">
          <mxGeometry relative="1" as="geometry" />
        </mxCell>
        <mxCell id="Md-qzRlcw9HbPaRJXL9A-58" value="des_data [27]" style="text;html=1;align=center;verticalAlign=middle;whiteSpace=wrap;rounded=0;" vertex="1" parent="1">
          <mxGeometry x="-350" y="760" width="60" height="30" as="geometry" />
        </mxCell>
        <mxCell id="Md-qzRlcw9HbPaRJXL9A-451" style="edgeStyle=orthogonalEdgeStyle;rounded=0;orthogonalLoop=1;jettySize=auto;html=1;exitX=0.5;exitY=0;exitDx=0;exitDy=0;entryX=0;entryY=0.5;entryDx=0;entryDy=0;" edge="1" parent="1" source="Md-qzRlcw9HbPaRJXL9A-59" target="Md-qzRlcw9HbPaRJXL9A-182">
          <mxGeometry relative="1" as="geometry" />
        </mxCell>
        <mxCell id="Md-qzRlcw9HbPaRJXL9A-59" value="des_data [31]" style="text;html=1;align=center;verticalAlign=middle;whiteSpace=wrap;rounded=0;" vertex="1" parent="1">
          <mxGeometry x="-590" y="760" width="60" height="30" as="geometry" />
        </mxCell>
        <mxCell id="Md-qzRlcw9HbPaRJXL9A-423" style="edgeStyle=orthogonalEdgeStyle;rounded=0;orthogonalLoop=1;jettySize=auto;html=1;exitX=0.5;exitY=0;exitDx=0;exitDy=0;entryX=0;entryY=0.5;entryDx=0;entryDy=0;" edge="1" parent="1" source="Md-qzRlcw9HbPaRJXL9A-60" target="Md-qzRlcw9HbPaRJXL9A-198">
          <mxGeometry relative="1" as="geometry" />
        </mxCell>
        <mxCell id="Md-qzRlcw9HbPaRJXL9A-60" value="des_data [3]" style="text;html=1;align=center;verticalAlign=middle;whiteSpace=wrap;rounded=0;" vertex="1" parent="1">
          <mxGeometry x="1090" y="760" width="60" height="30" as="geometry" />
        </mxCell>
        <mxCell id="Md-qzRlcw9HbPaRJXL9A-450" style="edgeStyle=orthogonalEdgeStyle;rounded=0;orthogonalLoop=1;jettySize=auto;html=1;exitX=0.5;exitY=0;exitDx=0;exitDy=0;entryX=0;entryY=0.5;entryDx=0;entryDy=0;" edge="1" parent="1" source="Md-qzRlcw9HbPaRJXL9A-61" target="Md-qzRlcw9HbPaRJXL9A-184">
          <mxGeometry relative="1" as="geometry" />
        </mxCell>
        <mxCell id="Md-qzRlcw9HbPaRJXL9A-61" value="des_data [30]" style="text;html=1;align=center;verticalAlign=middle;whiteSpace=wrap;rounded=0;" vertex="1" parent="1">
          <mxGeometry x="-530" y="760" width="60" height="30" as="geometry" />
        </mxCell>
        <mxCell id="Md-qzRlcw9HbPaRJXL9A-421" style="edgeStyle=orthogonalEdgeStyle;rounded=0;orthogonalLoop=1;jettySize=auto;html=1;exitX=0.5;exitY=0;exitDx=0;exitDy=0;entryX=0;entryY=0.5;entryDx=0;entryDy=0;" edge="1" parent="1" source="Md-qzRlcw9HbPaRJXL9A-62" target="Md-qzRlcw9HbPaRJXL9A-194">
          <mxGeometry relative="1" as="geometry" />
        </mxCell>
        <mxCell id="Md-qzRlcw9HbPaRJXL9A-62" value="des_data [1]" style="text;html=1;align=center;verticalAlign=middle;whiteSpace=wrap;rounded=0;" vertex="1" parent="1">
          <mxGeometry x="1210" y="760" width="60" height="30" as="geometry" />
        </mxCell>
        <mxCell id="Md-qzRlcw9HbPaRJXL9A-422" style="edgeStyle=orthogonalEdgeStyle;rounded=0;orthogonalLoop=1;jettySize=auto;html=1;exitX=0.5;exitY=0;exitDx=0;exitDy=0;entryX=0;entryY=0.5;entryDx=0;entryDy=0;" edge="1" parent="1" source="Md-qzRlcw9HbPaRJXL9A-63" target="Md-qzRlcw9HbPaRJXL9A-196">
          <mxGeometry relative="1" as="geometry" />
        </mxCell>
        <mxCell id="Md-qzRlcw9HbPaRJXL9A-63" value="des_data [2]" style="text;html=1;align=center;verticalAlign=middle;whiteSpace=wrap;rounded=0;" vertex="1" parent="1">
          <mxGeometry x="1150" y="760" width="60" height="30" as="geometry" />
        </mxCell>
        <mxCell id="Md-qzRlcw9HbPaRJXL9A-420" style="edgeStyle=orthogonalEdgeStyle;rounded=0;orthogonalLoop=1;jettySize=auto;html=1;exitX=0.5;exitY=0;exitDx=0;exitDy=0;entryX=0;entryY=0.5;entryDx=0;entryDy=0;" edge="1" parent="1" source="Md-qzRlcw9HbPaRJXL9A-64" target="Md-qzRlcw9HbPaRJXL9A-192">
          <mxGeometry relative="1" as="geometry" />
        </mxCell>
        <mxCell id="Md-qzRlcw9HbPaRJXL9A-64" value="des_data [0]" style="text;html=1;align=center;verticalAlign=middle;whiteSpace=wrap;rounded=0;" vertex="1" parent="1">
          <mxGeometry x="1270" y="760" width="60" height="30" as="geometry" />
        </mxCell>
        <mxCell id="Md-qzRlcw9HbPaRJXL9A-65" value="p_in[63]" style="text;html=1;align=center;verticalAlign=middle;whiteSpace=wrap;rounded=0;" vertex="1" parent="1">
          <mxGeometry x="-690" y="50" width="60" height="20" as="geometry" />
        </mxCell>
        <mxCell id="Md-qzRlcw9HbPaRJXL9A-66" value="p_in[38]" style="text;html=1;align=center;verticalAlign=middle;whiteSpace=wrap;rounded=0;" vertex="1" parent="1">
          <mxGeometry x="-690" y="550" width="60" height="20" as="geometry" />
        </mxCell>
        <mxCell id="Md-qzRlcw9HbPaRJXL9A-67" value="p_in[36]" style="text;html=1;align=center;verticalAlign=middle;whiteSpace=wrap;rounded=0;" vertex="1" parent="1">
          <mxGeometry x="-690" y="590" width="60" height="20" as="geometry" />
        </mxCell>
        <mxCell id="Md-qzRlcw9HbPaRJXL9A-68" value="p_in[39]" style="text;html=1;align=center;verticalAlign=middle;whiteSpace=wrap;rounded=0;" vertex="1" parent="1">
          <mxGeometry x="-690" y="530" width="60" height="20" as="geometry" />
        </mxCell>
        <mxCell id="Md-qzRlcw9HbPaRJXL9A-69" value="p_in[37]" style="text;html=1;align=center;verticalAlign=middle;whiteSpace=wrap;rounded=0;" vertex="1" parent="1">
          <mxGeometry x="-690" y="570" width="60" height="20" as="geometry" />
        </mxCell>
        <mxCell id="Md-qzRlcw9HbPaRJXL9A-70" value="p_in[40]" style="text;html=1;align=center;verticalAlign=middle;whiteSpace=wrap;rounded=0;" vertex="1" parent="1">
          <mxGeometry x="-690" y="510" width="60" height="20" as="geometry" />
        </mxCell>
        <mxCell id="Md-qzRlcw9HbPaRJXL9A-71" value="p_in[41]" style="text;html=1;align=center;verticalAlign=middle;whiteSpace=wrap;rounded=0;" vertex="1" parent="1">
          <mxGeometry x="-690" y="490" width="60" height="20" as="geometry" />
        </mxCell>
        <mxCell id="Md-qzRlcw9HbPaRJXL9A-72" value="p_in[42]" style="text;html=1;align=center;verticalAlign=middle;whiteSpace=wrap;rounded=0;" vertex="1" parent="1">
          <mxGeometry x="-690" y="470" width="60" height="20" as="geometry" />
        </mxCell>
        <mxCell id="Md-qzRlcw9HbPaRJXL9A-73" value="p_in[43]" style="text;html=1;align=center;verticalAlign=middle;whiteSpace=wrap;rounded=0;" vertex="1" parent="1">
          <mxGeometry x="-690" y="450" width="60" height="20" as="geometry" />
        </mxCell>
        <mxCell id="Md-qzRlcw9HbPaRJXL9A-74" value="p_in[44]" style="text;html=1;align=center;verticalAlign=middle;whiteSpace=wrap;rounded=0;" vertex="1" parent="1">
          <mxGeometry x="-690" y="430" width="60" height="20" as="geometry" />
        </mxCell>
        <mxCell id="Md-qzRlcw9HbPaRJXL9A-75" value="p_in[45]" style="text;html=1;align=center;verticalAlign=middle;whiteSpace=wrap;rounded=0;" vertex="1" parent="1">
          <mxGeometry x="-690" y="410" width="60" height="20" as="geometry" />
        </mxCell>
        <mxCell id="Md-qzRlcw9HbPaRJXL9A-76" value="p_in[46]" style="text;html=1;align=center;verticalAlign=middle;whiteSpace=wrap;rounded=0;" vertex="1" parent="1">
          <mxGeometry x="-690" y="390" width="60" height="20" as="geometry" />
        </mxCell>
        <mxCell id="Md-qzRlcw9HbPaRJXL9A-77" value="p_in[47]" style="text;html=1;align=center;verticalAlign=middle;whiteSpace=wrap;rounded=0;" vertex="1" parent="1">
          <mxGeometry x="-690" y="370" width="60" height="20" as="geometry" />
        </mxCell>
        <mxCell id="Md-qzRlcw9HbPaRJXL9A-78" value="p_in[48]" style="text;html=1;align=center;verticalAlign=middle;whiteSpace=wrap;rounded=0;" vertex="1" parent="1">
          <mxGeometry x="-690" y="350" width="60" height="20" as="geometry" />
        </mxCell>
        <mxCell id="Md-qzRlcw9HbPaRJXL9A-79" value="p_in[49]" style="text;html=1;align=center;verticalAlign=middle;whiteSpace=wrap;rounded=0;" vertex="1" parent="1">
          <mxGeometry x="-690" y="330" width="60" height="20" as="geometry" />
        </mxCell>
        <mxCell id="Md-qzRlcw9HbPaRJXL9A-80" value="p_in[50]" style="text;html=1;align=center;verticalAlign=middle;whiteSpace=wrap;rounded=0;" vertex="1" parent="1">
          <mxGeometry x="-690" y="310" width="60" height="20" as="geometry" />
        </mxCell>
        <mxCell id="Md-qzRlcw9HbPaRJXL9A-81" value="p_in[51]" style="text;html=1;align=center;verticalAlign=middle;whiteSpace=wrap;rounded=0;" vertex="1" parent="1">
          <mxGeometry x="-690" y="290" width="60" height="20" as="geometry" />
        </mxCell>
        <mxCell id="Md-qzRlcw9HbPaRJXL9A-82" value="p_in[52]" style="text;html=1;align=center;verticalAlign=middle;whiteSpace=wrap;rounded=0;" vertex="1" parent="1">
          <mxGeometry x="-690" y="270" width="60" height="20" as="geometry" />
        </mxCell>
        <mxCell id="Md-qzRlcw9HbPaRJXL9A-83" value="p_in[53]" style="text;html=1;align=center;verticalAlign=middle;whiteSpace=wrap;rounded=0;" vertex="1" parent="1">
          <mxGeometry x="-690" y="250" width="60" height="20" as="geometry" />
        </mxCell>
        <mxCell id="Md-qzRlcw9HbPaRJXL9A-84" value="p_in[54]" style="text;html=1;align=center;verticalAlign=middle;whiteSpace=wrap;rounded=0;" vertex="1" parent="1">
          <mxGeometry x="-690" y="230" width="60" height="20" as="geometry" />
        </mxCell>
        <mxCell id="Md-qzRlcw9HbPaRJXL9A-85" value="p_in[55]" style="text;html=1;align=center;verticalAlign=middle;whiteSpace=wrap;rounded=0;" vertex="1" parent="1">
          <mxGeometry x="-690" y="210" width="60" height="20" as="geometry" />
        </mxCell>
        <mxCell id="Md-qzRlcw9HbPaRJXL9A-86" value="p_in[56]" style="text;html=1;align=center;verticalAlign=middle;whiteSpace=wrap;rounded=0;" vertex="1" parent="1">
          <mxGeometry x="-690" y="190" width="60" height="20" as="geometry" />
        </mxCell>
        <mxCell id="Md-qzRlcw9HbPaRJXL9A-87" value="p_in[57]" style="text;html=1;align=center;verticalAlign=middle;whiteSpace=wrap;rounded=0;" vertex="1" parent="1">
          <mxGeometry x="-690" y="170" width="60" height="20" as="geometry" />
        </mxCell>
        <mxCell id="Md-qzRlcw9HbPaRJXL9A-88" value="p_in[58]" style="text;html=1;align=center;verticalAlign=middle;whiteSpace=wrap;rounded=0;" vertex="1" parent="1">
          <mxGeometry x="-690" y="150" width="60" height="20" as="geometry" />
        </mxCell>
        <mxCell id="Md-qzRlcw9HbPaRJXL9A-89" value="p_in[60]" style="text;html=1;align=center;verticalAlign=middle;whiteSpace=wrap;rounded=0;" vertex="1" parent="1">
          <mxGeometry x="-690" y="110" width="60" height="20" as="geometry" />
        </mxCell>
        <mxCell id="Md-qzRlcw9HbPaRJXL9A-90" value="p_in[59]" style="text;html=1;align=center;verticalAlign=middle;whiteSpace=wrap;rounded=0;" vertex="1" parent="1">
          <mxGeometry x="-690" y="130" width="60" height="20" as="geometry" />
        </mxCell>
        <mxCell id="Md-qzRlcw9HbPaRJXL9A-91" value="p_in[61]" style="text;html=1;align=center;verticalAlign=middle;whiteSpace=wrap;rounded=0;" vertex="1" parent="1">
          <mxGeometry x="-690" y="90" width="60" height="20" as="geometry" />
        </mxCell>
        <mxCell id="Md-qzRlcw9HbPaRJXL9A-92" value="p_in[62]" style="text;html=1;align=center;verticalAlign=middle;whiteSpace=wrap;rounded=0;" vertex="1" parent="1">
          <mxGeometry x="-690" y="70" width="60" height="20" as="geometry" />
        </mxCell>
        <mxCell id="Md-qzRlcw9HbPaRJXL9A-93" value="p_in[31]" style="text;html=1;align=center;verticalAlign=middle;whiteSpace=wrap;rounded=0;" vertex="1" parent="1">
          <mxGeometry x="1380" y="50" width="60" height="20" as="geometry" />
        </mxCell>
        <mxCell id="Md-qzRlcw9HbPaRJXL9A-94" value="p_in[6]" style="text;html=1;align=center;verticalAlign=middle;whiteSpace=wrap;rounded=0;" vertex="1" parent="1">
          <mxGeometry x="1380" y="550" width="60" height="20" as="geometry" />
        </mxCell>
        <mxCell id="Md-qzRlcw9HbPaRJXL9A-95" value="p_in[4]" style="text;html=1;align=center;verticalAlign=middle;whiteSpace=wrap;rounded=0;" vertex="1" parent="1">
          <mxGeometry x="1380" y="590" width="60" height="20" as="geometry" />
        </mxCell>
        <mxCell id="Md-qzRlcw9HbPaRJXL9A-96" value="p_in[7]" style="text;html=1;align=center;verticalAlign=middle;whiteSpace=wrap;rounded=0;" vertex="1" parent="1">
          <mxGeometry x="1380" y="530" width="60" height="20" as="geometry" />
        </mxCell>
        <mxCell id="Md-qzRlcw9HbPaRJXL9A-97" value="p_in[5]" style="text;html=1;align=center;verticalAlign=middle;whiteSpace=wrap;rounded=0;" vertex="1" parent="1">
          <mxGeometry x="1380" y="570" width="60" height="20" as="geometry" />
        </mxCell>
        <mxCell id="Md-qzRlcw9HbPaRJXL9A-98" value="p_in[8]" style="text;html=1;align=center;verticalAlign=middle;whiteSpace=wrap;rounded=0;" vertex="1" parent="1">
          <mxGeometry x="1380" y="510" width="60" height="20" as="geometry" />
        </mxCell>
        <mxCell id="Md-qzRlcw9HbPaRJXL9A-99" value="p_in[9]" style="text;html=1;align=center;verticalAlign=middle;whiteSpace=wrap;rounded=0;" vertex="1" parent="1">
          <mxGeometry x="1380" y="490" width="60" height="20" as="geometry" />
        </mxCell>
        <mxCell id="Md-qzRlcw9HbPaRJXL9A-100" value="p_in[10]" style="text;html=1;align=center;verticalAlign=middle;whiteSpace=wrap;rounded=0;" vertex="1" parent="1">
          <mxGeometry x="1380" y="470" width="60" height="20" as="geometry" />
        </mxCell>
        <mxCell id="Md-qzRlcw9HbPaRJXL9A-101" value="p_in[11]" style="text;html=1;align=center;verticalAlign=middle;whiteSpace=wrap;rounded=0;" vertex="1" parent="1">
          <mxGeometry x="1380" y="450" width="60" height="20" as="geometry" />
        </mxCell>
        <mxCell id="Md-qzRlcw9HbPaRJXL9A-102" value="p_in[12]" style="text;html=1;align=center;verticalAlign=middle;whiteSpace=wrap;rounded=0;" vertex="1" parent="1">
          <mxGeometry x="1380" y="430" width="60" height="20" as="geometry" />
        </mxCell>
        <mxCell id="Md-qzRlcw9HbPaRJXL9A-103" value="p_in[13]" style="text;html=1;align=center;verticalAlign=middle;whiteSpace=wrap;rounded=0;" vertex="1" parent="1">
          <mxGeometry x="1380" y="410" width="60" height="20" as="geometry" />
        </mxCell>
        <mxCell id="Md-qzRlcw9HbPaRJXL9A-104" value="p_in[14]" style="text;html=1;align=center;verticalAlign=middle;whiteSpace=wrap;rounded=0;" vertex="1" parent="1">
          <mxGeometry x="1380" y="390" width="60" height="20" as="geometry" />
        </mxCell>
        <mxCell id="Md-qzRlcw9HbPaRJXL9A-105" value="p_in[15]" style="text;html=1;align=center;verticalAlign=middle;whiteSpace=wrap;rounded=0;" vertex="1" parent="1">
          <mxGeometry x="1380" y="370" width="60" height="20" as="geometry" />
        </mxCell>
        <mxCell id="Md-qzRlcw9HbPaRJXL9A-106" value="p_in[16]" style="text;html=1;align=center;verticalAlign=middle;whiteSpace=wrap;rounded=0;" vertex="1" parent="1">
          <mxGeometry x="1380" y="350" width="60" height="20" as="geometry" />
        </mxCell>
        <mxCell id="Md-qzRlcw9HbPaRJXL9A-107" value="p_in[17]" style="text;html=1;align=center;verticalAlign=middle;whiteSpace=wrap;rounded=0;" vertex="1" parent="1">
          <mxGeometry x="1380" y="330" width="60" height="20" as="geometry" />
        </mxCell>
        <mxCell id="Md-qzRlcw9HbPaRJXL9A-108" value="p_in[18]" style="text;html=1;align=center;verticalAlign=middle;whiteSpace=wrap;rounded=0;" vertex="1" parent="1">
          <mxGeometry x="1380" y="310" width="60" height="20" as="geometry" />
        </mxCell>
        <mxCell id="Md-qzRlcw9HbPaRJXL9A-109" value="p_in[19]" style="text;html=1;align=center;verticalAlign=middle;whiteSpace=wrap;rounded=0;" vertex="1" parent="1">
          <mxGeometry x="1380" y="290" width="60" height="20" as="geometry" />
        </mxCell>
        <mxCell id="Md-qzRlcw9HbPaRJXL9A-110" value="p_in[20]" style="text;html=1;align=center;verticalAlign=middle;whiteSpace=wrap;rounded=0;" vertex="1" parent="1">
          <mxGeometry x="1380" y="270" width="60" height="20" as="geometry" />
        </mxCell>
        <mxCell id="Md-qzRlcw9HbPaRJXL9A-111" value="p_in[21]" style="text;html=1;align=center;verticalAlign=middle;whiteSpace=wrap;rounded=0;" vertex="1" parent="1">
          <mxGeometry x="1380" y="250" width="60" height="20" as="geometry" />
        </mxCell>
        <mxCell id="Md-qzRlcw9HbPaRJXL9A-112" value="p_in[22]" style="text;html=1;align=center;verticalAlign=middle;whiteSpace=wrap;rounded=0;" vertex="1" parent="1">
          <mxGeometry x="1380" y="230" width="60" height="20" as="geometry" />
        </mxCell>
        <mxCell id="Md-qzRlcw9HbPaRJXL9A-113" value="p_in[23]" style="text;html=1;align=center;verticalAlign=middle;whiteSpace=wrap;rounded=0;" vertex="1" parent="1">
          <mxGeometry x="1380" y="210" width="60" height="20" as="geometry" />
        </mxCell>
        <mxCell id="Md-qzRlcw9HbPaRJXL9A-114" value="p_in[24]" style="text;html=1;align=center;verticalAlign=middle;whiteSpace=wrap;rounded=0;" vertex="1" parent="1">
          <mxGeometry x="1380" y="190" width="60" height="20" as="geometry" />
        </mxCell>
        <mxCell id="Md-qzRlcw9HbPaRJXL9A-115" value="p_in[25]" style="text;html=1;align=center;verticalAlign=middle;whiteSpace=wrap;rounded=0;" vertex="1" parent="1">
          <mxGeometry x="1380" y="170" width="60" height="20" as="geometry" />
        </mxCell>
        <mxCell id="Md-qzRlcw9HbPaRJXL9A-116" value="p_in[26]" style="text;html=1;align=center;verticalAlign=middle;whiteSpace=wrap;rounded=0;" vertex="1" parent="1">
          <mxGeometry x="1380" y="150" width="60" height="20" as="geometry" />
        </mxCell>
        <mxCell id="Md-qzRlcw9HbPaRJXL9A-117" value="p_in[28]" style="text;html=1;align=center;verticalAlign=middle;whiteSpace=wrap;rounded=0;" vertex="1" parent="1">
          <mxGeometry x="1380" y="110" width="60" height="20" as="geometry" />
        </mxCell>
        <mxCell id="Md-qzRlcw9HbPaRJXL9A-118" value="p_in[27]" style="text;html=1;align=center;verticalAlign=middle;whiteSpace=wrap;rounded=0;" vertex="1" parent="1">
          <mxGeometry x="1380" y="130" width="60" height="20" as="geometry" />
        </mxCell>
        <mxCell id="Md-qzRlcw9HbPaRJXL9A-119" value="p_in[29]" style="text;html=1;align=center;verticalAlign=middle;whiteSpace=wrap;rounded=0;" vertex="1" parent="1">
          <mxGeometry x="1380" y="90" width="60" height="20" as="geometry" />
        </mxCell>
        <mxCell id="Md-qzRlcw9HbPaRJXL9A-120" value="p_in[30]" style="text;html=1;align=center;verticalAlign=middle;whiteSpace=wrap;rounded=0;" vertex="1" parent="1">
          <mxGeometry x="1380" y="70" width="60" height="20" as="geometry" />
        </mxCell>
        <mxCell id="Md-qzRlcw9HbPaRJXL9A-358" style="edgeStyle=orthogonalEdgeStyle;rounded=0;orthogonalLoop=1;jettySize=auto;html=1;exitX=1;exitY=0.5;exitDx=0;exitDy=0;entryX=0;entryY=0.5;entryDx=0;entryDy=0;" edge="1" parent="1" source="Md-qzRlcw9HbPaRJXL9A-122" target="Md-qzRlcw9HbPaRJXL9A-114">
          <mxGeometry relative="1" as="geometry">
            <Array as="points">
              <mxPoint x="-560" y="50" />
              <mxPoint x="-570" y="50" />
              <mxPoint x="-570" y="210" />
              <mxPoint x="1360" y="210" />
              <mxPoint x="1360" y="200" />
            </Array>
          </mxGeometry>
        </mxCell>
        <mxCell id="Md-qzRlcw9HbPaRJXL9A-122" value="" style="triangle;whiteSpace=wrap;html=1;rotation=90;" vertex="1" parent="1">
          <mxGeometry x="-570" y="10" width="20" height="30" as="geometry" />
        </mxCell>
        <mxCell id="Md-qzRlcw9HbPaRJXL9A-326" style="edgeStyle=orthogonalEdgeStyle;rounded=0;orthogonalLoop=1;jettySize=auto;html=1;exitX=1;exitY=0.5;exitDx=0;exitDy=0;entryX=1;entryY=0.5;entryDx=0;entryDy=0;" edge="1" parent="1" source="Md-qzRlcw9HbPaRJXL9A-124" target="Md-qzRlcw9HbPaRJXL9A-86">
          <mxGeometry relative="1" as="geometry">
            <Array as="points">
              <mxPoint x="-500" y="50" />
              <mxPoint x="-510" y="50" />
              <mxPoint x="-510" y="200" />
            </Array>
          </mxGeometry>
        </mxCell>
        <mxCell id="Md-qzRlcw9HbPaRJXL9A-124" value="" style="triangle;whiteSpace=wrap;html=1;rotation=90;" vertex="1" parent="1">
          <mxGeometry x="-510" y="10" width="20" height="30" as="geometry" />
        </mxCell>
        <mxCell id="Md-qzRlcw9HbPaRJXL9A-372" style="edgeStyle=orthogonalEdgeStyle;rounded=0;orthogonalLoop=1;jettySize=auto;html=1;exitX=1;exitY=0.5;exitDx=0;exitDy=0;entryX=0;entryY=0.5;entryDx=0;entryDy=0;" edge="1" parent="1" source="Md-qzRlcw9HbPaRJXL9A-126" target="Md-qzRlcw9HbPaRJXL9A-100">
          <mxGeometry relative="1" as="geometry">
            <Array as="points">
              <mxPoint x="640" y="50" />
              <mxPoint x="630" y="50" />
              <mxPoint x="630" y="490" />
              <mxPoint x="1360" y="490" />
              <mxPoint x="1360" y="480" />
            </Array>
          </mxGeometry>
        </mxCell>
        <mxCell id="Md-qzRlcw9HbPaRJXL9A-126" value="" style="triangle;whiteSpace=wrap;html=1;rotation=90;" vertex="1" parent="1">
          <mxGeometry x="630" y="10" width="20" height="30" as="geometry" />
        </mxCell>
        <mxCell id="Md-qzRlcw9HbPaRJXL9A-340" style="edgeStyle=orthogonalEdgeStyle;rounded=0;orthogonalLoop=1;jettySize=auto;html=1;exitX=1;exitY=0.5;exitDx=0;exitDy=0;entryX=1;entryY=0.5;entryDx=0;entryDy=0;" edge="1" parent="1" source="Md-qzRlcw9HbPaRJXL9A-128" target="Md-qzRlcw9HbPaRJXL9A-72">
          <mxGeometry relative="1" as="geometry">
            <Array as="points">
              <mxPoint x="700" y="50" />
              <mxPoint x="690" y="50" />
              <mxPoint x="690" y="480" />
            </Array>
          </mxGeometry>
        </mxCell>
        <mxCell id="Md-qzRlcw9HbPaRJXL9A-128" value="" style="triangle;whiteSpace=wrap;html=1;rotation=90;" vertex="1" parent="1">
          <mxGeometry x="690" y="10" width="20" height="30" as="geometry" />
        </mxCell>
        <mxCell id="Md-qzRlcw9HbPaRJXL9A-381" style="edgeStyle=orthogonalEdgeStyle;rounded=0;orthogonalLoop=1;jettySize=auto;html=1;exitX=1;exitY=0.5;exitDx=0;exitDy=0;entryX=0;entryY=0.5;entryDx=0;entryDy=0;" edge="1" parent="1" source="Md-qzRlcw9HbPaRJXL9A-130" target="Md-qzRlcw9HbPaRJXL9A-316">
          <mxGeometry relative="1" as="geometry">
            <Array as="points">
              <mxPoint x="760" y="50" />
              <mxPoint x="750" y="50" />
              <mxPoint x="750" y="650" />
              <mxPoint x="1360" y="650" />
              <mxPoint x="1360" y="640" />
            </Array>
          </mxGeometry>
        </mxCell>
        <mxCell id="Md-qzRlcw9HbPaRJXL9A-130" value="" style="triangle;whiteSpace=wrap;html=1;rotation=90;" vertex="1" parent="1">
          <mxGeometry x="750" y="10" width="20" height="30" as="geometry" />
        </mxCell>
        <mxCell id="Md-qzRlcw9HbPaRJXL9A-348" style="edgeStyle=orthogonalEdgeStyle;rounded=0;orthogonalLoop=1;jettySize=auto;html=1;exitX=1;exitY=0.5;exitDx=0;exitDy=0;entryX=1;entryY=0.5;entryDx=0;entryDy=0;" edge="1" parent="1" source="Md-qzRlcw9HbPaRJXL9A-131" target="Md-qzRlcw9HbPaRJXL9A-310">
          <mxGeometry relative="1" as="geometry">
            <Array as="points">
              <mxPoint x="820" y="50" />
              <mxPoint x="810" y="50" />
              <mxPoint x="810" y="640" />
            </Array>
          </mxGeometry>
        </mxCell>
        <mxCell id="Md-qzRlcw9HbPaRJXL9A-131" value="" style="triangle;whiteSpace=wrap;html=1;rotation=90;" vertex="1" parent="1">
          <mxGeometry x="810" y="10" width="20" height="30" as="geometry" />
        </mxCell>
        <mxCell id="Md-qzRlcw9HbPaRJXL9A-347" style="edgeStyle=orthogonalEdgeStyle;rounded=0;orthogonalLoop=1;jettySize=auto;html=1;exitX=1;exitY=0.5;exitDx=0;exitDy=0;entryX=1;entryY=0.5;entryDx=0;entryDy=0;" edge="1" parent="1" source="Md-qzRlcw9HbPaRJXL9A-132" target="Md-qzRlcw9HbPaRJXL9A-311">
          <mxGeometry relative="1" as="geometry">
            <Array as="points">
              <mxPoint x="1300" y="50" />
              <mxPoint x="1290" y="50" />
              <mxPoint x="1290" y="620" />
            </Array>
          </mxGeometry>
        </mxCell>
        <mxCell id="Md-qzRlcw9HbPaRJXL9A-132" value="" style="triangle;whiteSpace=wrap;html=1;rotation=90;" vertex="1" parent="1">
          <mxGeometry x="1290" y="10" width="20" height="30" as="geometry" />
        </mxCell>
        <mxCell id="Md-qzRlcw9HbPaRJXL9A-379" style="edgeStyle=orthogonalEdgeStyle;rounded=0;orthogonalLoop=1;jettySize=auto;html=1;exitX=1;exitY=0.5;exitDx=0;exitDy=0;entryX=0;entryY=0.5;entryDx=0;entryDy=0;" edge="1" parent="1" source="Md-qzRlcw9HbPaRJXL9A-134" target="Md-qzRlcw9HbPaRJXL9A-317">
          <mxGeometry relative="1" as="geometry">
            <Array as="points">
              <mxPoint x="1240" y="50" />
              <mxPoint x="1230" y="50" />
              <mxPoint x="1230" y="630" />
              <mxPoint x="1360" y="630" />
              <mxPoint x="1360" y="620" />
            </Array>
          </mxGeometry>
        </mxCell>
        <mxCell id="Md-qzRlcw9HbPaRJXL9A-134" value="" style="triangle;whiteSpace=wrap;html=1;rotation=90;" vertex="1" parent="1">
          <mxGeometry x="1230" y="10" width="20" height="30" as="geometry" />
        </mxCell>
        <mxCell id="Md-qzRlcw9HbPaRJXL9A-339" style="edgeStyle=orthogonalEdgeStyle;rounded=0;orthogonalLoop=1;jettySize=auto;html=1;exitX=1;exitY=0.5;exitDx=0;exitDy=0;entryX=1;entryY=0.5;entryDx=0;entryDy=0;" edge="1" parent="1" source="Md-qzRlcw9HbPaRJXL9A-136" target="Md-qzRlcw9HbPaRJXL9A-73">
          <mxGeometry relative="1" as="geometry">
            <Array as="points">
              <mxPoint x="1180" y="50" />
              <mxPoint x="1170" y="50" />
              <mxPoint x="1170" y="460" />
            </Array>
          </mxGeometry>
        </mxCell>
        <mxCell id="Md-qzRlcw9HbPaRJXL9A-136" value="" style="triangle;whiteSpace=wrap;html=1;rotation=90;" vertex="1" parent="1">
          <mxGeometry x="1170" y="10" width="20" height="30" as="geometry" />
        </mxCell>
        <mxCell id="Md-qzRlcw9HbPaRJXL9A-371" style="edgeStyle=orthogonalEdgeStyle;rounded=0;orthogonalLoop=1;jettySize=auto;html=1;exitX=1;exitY=0.5;exitDx=0;exitDy=0;entryX=0;entryY=0.5;entryDx=0;entryDy=0;" edge="1" parent="1" source="Md-qzRlcw9HbPaRJXL9A-138" target="Md-qzRlcw9HbPaRJXL9A-101">
          <mxGeometry relative="1" as="geometry">
            <Array as="points">
              <mxPoint x="1120" y="50" />
              <mxPoint x="1110" y="50" />
              <mxPoint x="1110" y="470" />
              <mxPoint x="1360" y="470" />
              <mxPoint x="1360" y="460" />
            </Array>
          </mxGeometry>
        </mxCell>
        <mxCell id="Md-qzRlcw9HbPaRJXL9A-138" value="" style="triangle;whiteSpace=wrap;html=1;rotation=90;" vertex="1" parent="1">
          <mxGeometry x="1110" y="10" width="20" height="30" as="geometry" />
        </mxCell>
        <mxCell id="Md-qzRlcw9HbPaRJXL9A-331" style="edgeStyle=orthogonalEdgeStyle;rounded=0;orthogonalLoop=1;jettySize=auto;html=1;exitX=1;exitY=0.5;exitDx=0;exitDy=0;entryX=1;entryY=0.5;entryDx=0;entryDy=0;" edge="1" parent="1" source="Md-qzRlcw9HbPaRJXL9A-140" target="Md-qzRlcw9HbPaRJXL9A-81">
          <mxGeometry relative="1" as="geometry">
            <Array as="points">
              <mxPoint x="1060" y="50" />
              <mxPoint x="1050" y="50" />
              <mxPoint x="1050" y="300" />
            </Array>
          </mxGeometry>
        </mxCell>
        <mxCell id="Md-qzRlcw9HbPaRJXL9A-140" value="" style="triangle;whiteSpace=wrap;html=1;rotation=90;" vertex="1" parent="1">
          <mxGeometry x="1050" y="10" width="20" height="30" as="geometry" />
        </mxCell>
        <mxCell id="Md-qzRlcw9HbPaRJXL9A-363" style="edgeStyle=orthogonalEdgeStyle;rounded=0;orthogonalLoop=1;jettySize=auto;html=1;exitX=1;exitY=0.5;exitDx=0;exitDy=0;entryX=0;entryY=0.5;entryDx=0;entryDy=0;" edge="1" parent="1" source="Md-qzRlcw9HbPaRJXL9A-142" target="Md-qzRlcw9HbPaRJXL9A-109">
          <mxGeometry relative="1" as="geometry">
            <Array as="points">
              <mxPoint x="1000" y="50" />
              <mxPoint x="990" y="50" />
              <mxPoint x="990" y="310" />
              <mxPoint x="1360" y="310" />
              <mxPoint x="1360" y="300" />
            </Array>
          </mxGeometry>
        </mxCell>
        <mxCell id="Md-qzRlcw9HbPaRJXL9A-142" value="" style="triangle;whiteSpace=wrap;html=1;rotation=90;" vertex="1" parent="1">
          <mxGeometry x="990" y="10" width="20" height="30" as="geometry" />
        </mxCell>
        <mxCell id="Md-qzRlcw9HbPaRJXL9A-323" style="edgeStyle=orthogonalEdgeStyle;rounded=0;orthogonalLoop=1;jettySize=auto;html=1;exitX=1;exitY=0.5;exitDx=0;exitDy=0;entryX=1;entryY=0.5;entryDx=0;entryDy=0;" edge="1" parent="1" source="Md-qzRlcw9HbPaRJXL9A-144" target="Md-qzRlcw9HbPaRJXL9A-90">
          <mxGeometry relative="1" as="geometry">
            <Array as="points">
              <mxPoint x="940" y="50" />
              <mxPoint x="930" y="50" />
              <mxPoint x="930" y="140" />
            </Array>
          </mxGeometry>
        </mxCell>
        <mxCell id="Md-qzRlcw9HbPaRJXL9A-144" value="" style="triangle;whiteSpace=wrap;html=1;rotation=90;" vertex="1" parent="1">
          <mxGeometry x="930" y="10" width="20" height="30" as="geometry" />
        </mxCell>
        <mxCell id="Md-qzRlcw9HbPaRJXL9A-355" style="edgeStyle=orthogonalEdgeStyle;rounded=0;orthogonalLoop=1;jettySize=auto;html=1;exitX=1;exitY=0.5;exitDx=0;exitDy=0;entryX=0;entryY=0.5;entryDx=0;entryDy=0;" edge="1" parent="1" source="Md-qzRlcw9HbPaRJXL9A-146" target="Md-qzRlcw9HbPaRJXL9A-118">
          <mxGeometry relative="1" as="geometry">
            <Array as="points">
              <mxPoint x="880" y="50" />
              <mxPoint x="870" y="50" />
              <mxPoint x="870" y="150" />
              <mxPoint x="1360" y="150" />
              <mxPoint x="1360" y="140" />
            </Array>
          </mxGeometry>
        </mxCell>
        <mxCell id="Md-qzRlcw9HbPaRJXL9A-146" value="" style="triangle;whiteSpace=wrap;html=1;rotation=90;" vertex="1" parent="1">
          <mxGeometry x="870" y="10" width="20" height="30" as="geometry" />
        </mxCell>
        <mxCell id="Md-qzRlcw9HbPaRJXL9A-332" style="edgeStyle=orthogonalEdgeStyle;rounded=0;orthogonalLoop=1;jettySize=auto;html=1;exitX=1;exitY=0.5;exitDx=0;exitDy=0;entryX=1;entryY=0.5;entryDx=0;entryDy=0;" edge="1" parent="1" source="Md-qzRlcw9HbPaRJXL9A-148" target="Md-qzRlcw9HbPaRJXL9A-80">
          <mxGeometry relative="1" as="geometry">
            <Array as="points">
              <mxPoint x="580" y="50" />
              <mxPoint x="570" y="50" />
              <mxPoint x="570" y="320" />
            </Array>
          </mxGeometry>
        </mxCell>
        <mxCell id="Md-qzRlcw9HbPaRJXL9A-148" value="" style="triangle;whiteSpace=wrap;html=1;rotation=90;" vertex="1" parent="1">
          <mxGeometry x="570" y="10" width="20" height="30" as="geometry" />
        </mxCell>
        <mxCell id="Md-qzRlcw9HbPaRJXL9A-364" style="edgeStyle=orthogonalEdgeStyle;rounded=0;orthogonalLoop=1;jettySize=auto;html=1;exitX=1;exitY=0.5;exitDx=0;exitDy=0;entryX=0;entryY=0.5;entryDx=0;entryDy=0;" edge="1" parent="1" source="Md-qzRlcw9HbPaRJXL9A-150" target="Md-qzRlcw9HbPaRJXL9A-108">
          <mxGeometry relative="1" as="geometry">
            <Array as="points">
              <mxPoint x="520" y="50" />
              <mxPoint x="510" y="50" />
              <mxPoint x="510" y="330" />
              <mxPoint x="1360" y="330" />
              <mxPoint x="1360" y="320" />
            </Array>
          </mxGeometry>
        </mxCell>
        <mxCell id="Md-qzRlcw9HbPaRJXL9A-150" value="" style="triangle;whiteSpace=wrap;html=1;rotation=90;" vertex="1" parent="1">
          <mxGeometry x="510" y="10" width="20" height="30" as="geometry" />
        </mxCell>
        <mxCell id="Md-qzRlcw9HbPaRJXL9A-324" style="edgeStyle=orthogonalEdgeStyle;rounded=0;orthogonalLoop=1;jettySize=auto;html=1;exitX=1;exitY=0.5;exitDx=0;exitDy=0;entryX=1;entryY=0.5;entryDx=0;entryDy=0;" edge="1" parent="1" source="Md-qzRlcw9HbPaRJXL9A-152" target="Md-qzRlcw9HbPaRJXL9A-88">
          <mxGeometry relative="1" as="geometry">
            <Array as="points">
              <mxPoint x="460" y="50" />
              <mxPoint x="450" y="50" />
              <mxPoint x="450" y="160" />
            </Array>
          </mxGeometry>
        </mxCell>
        <mxCell id="Md-qzRlcw9HbPaRJXL9A-152" value="" style="triangle;whiteSpace=wrap;html=1;rotation=90;" vertex="1" parent="1">
          <mxGeometry x="450" y="10" width="20" height="30" as="geometry" />
        </mxCell>
        <mxCell id="Md-qzRlcw9HbPaRJXL9A-341" style="edgeStyle=orthogonalEdgeStyle;rounded=0;orthogonalLoop=1;jettySize=auto;html=1;exitX=1;exitY=0.5;exitDx=0;exitDy=0;entryX=1;entryY=0.5;entryDx=0;entryDy=0;" edge="1" parent="1" source="Md-qzRlcw9HbPaRJXL9A-154" target="Md-qzRlcw9HbPaRJXL9A-71">
          <mxGeometry relative="1" as="geometry">
            <Array as="points">
              <mxPoint x="220" y="50" />
              <mxPoint x="210" y="50" />
              <mxPoint x="210" y="500" />
            </Array>
          </mxGeometry>
        </mxCell>
        <mxCell id="Md-qzRlcw9HbPaRJXL9A-154" value="" style="triangle;whiteSpace=wrap;html=1;rotation=90;" vertex="1" parent="1">
          <mxGeometry x="210" y="10" width="20" height="30" as="geometry" />
        </mxCell>
        <mxCell id="Md-qzRlcw9HbPaRJXL9A-356" style="edgeStyle=orthogonalEdgeStyle;rounded=0;orthogonalLoop=1;jettySize=auto;html=1;exitX=1;exitY=0.5;exitDx=0;exitDy=0;entryX=0;entryY=0.5;entryDx=0;entryDy=0;" edge="1" parent="1" source="Md-qzRlcw9HbPaRJXL9A-156" target="Md-qzRlcw9HbPaRJXL9A-116">
          <mxGeometry relative="1" as="geometry">
            <Array as="points">
              <mxPoint x="400" y="50" />
              <mxPoint x="390" y="50" />
              <mxPoint x="390" y="170" />
              <mxPoint x="1360" y="170" />
              <mxPoint x="1360" y="160" />
            </Array>
          </mxGeometry>
        </mxCell>
        <mxCell id="Md-qzRlcw9HbPaRJXL9A-156" value="" style="triangle;whiteSpace=wrap;html=1;rotation=90;" vertex="1" parent="1">
          <mxGeometry x="390" y="10" width="20" height="30" as="geometry" />
        </mxCell>
        <mxCell id="Md-qzRlcw9HbPaRJXL9A-349" style="edgeStyle=orthogonalEdgeStyle;rounded=0;orthogonalLoop=1;jettySize=auto;html=1;exitX=1;exitY=0.5;exitDx=0;exitDy=0;entryX=1;entryY=0.5;entryDx=0;entryDy=0;" edge="1" parent="1" source="Md-qzRlcw9HbPaRJXL9A-157" target="Md-qzRlcw9HbPaRJXL9A-308">
          <mxGeometry relative="1" as="geometry">
            <Array as="points">
              <mxPoint x="340" y="50" />
              <mxPoint x="330" y="50" />
              <mxPoint x="330" y="660" />
            </Array>
          </mxGeometry>
        </mxCell>
        <mxCell id="Md-qzRlcw9HbPaRJXL9A-157" value="" style="triangle;whiteSpace=wrap;html=1;rotation=90;" vertex="1" parent="1">
          <mxGeometry x="330" y="10" width="20" height="30" as="geometry" />
        </mxCell>
        <mxCell id="Md-qzRlcw9HbPaRJXL9A-382" style="edgeStyle=orthogonalEdgeStyle;rounded=0;orthogonalLoop=1;jettySize=auto;html=1;exitX=1;exitY=0.5;exitDx=0;exitDy=0;entryX=0;entryY=0.5;entryDx=0;entryDy=0;" edge="1" parent="1" source="Md-qzRlcw9HbPaRJXL9A-159" target="Md-qzRlcw9HbPaRJXL9A-314">
          <mxGeometry relative="1" as="geometry">
            <Array as="points">
              <mxPoint x="280" y="50" />
              <mxPoint x="270" y="50" />
              <mxPoint x="270" y="670" />
              <mxPoint x="1360" y="670" />
              <mxPoint x="1360" y="660" />
            </Array>
          </mxGeometry>
        </mxCell>
        <mxCell id="Md-qzRlcw9HbPaRJXL9A-159" value="" style="triangle;whiteSpace=wrap;html=1;rotation=90;" vertex="1" parent="1">
          <mxGeometry x="270" y="10" width="20" height="30" as="geometry" />
        </mxCell>
        <mxCell id="Md-qzRlcw9HbPaRJXL9A-373" style="edgeStyle=orthogonalEdgeStyle;rounded=0;orthogonalLoop=1;jettySize=auto;html=1;exitX=1;exitY=0.5;exitDx=0;exitDy=0;entryX=0;entryY=0.5;entryDx=0;entryDy=0;" edge="1" parent="1" source="Md-qzRlcw9HbPaRJXL9A-161" target="Md-qzRlcw9HbPaRJXL9A-99">
          <mxGeometry relative="1" as="geometry">
            <Array as="points">
              <mxPoint x="160" y="50" />
              <mxPoint x="150" y="50" />
              <mxPoint x="150" y="510" />
              <mxPoint x="1360" y="510" />
              <mxPoint x="1360" y="500" />
            </Array>
          </mxGeometry>
        </mxCell>
        <mxCell id="Md-qzRlcw9HbPaRJXL9A-161" value="" style="triangle;whiteSpace=wrap;html=1;rotation=90;" vertex="1" parent="1">
          <mxGeometry x="150" y="10" width="20" height="30" as="geometry" />
        </mxCell>
        <mxCell id="Md-qzRlcw9HbPaRJXL9A-333" style="edgeStyle=orthogonalEdgeStyle;rounded=0;orthogonalLoop=1;jettySize=auto;html=1;exitX=1;exitY=0.5;exitDx=0;exitDy=0;entryX=1;entryY=0.5;entryDx=0;entryDy=0;" edge="1" parent="1" source="Md-qzRlcw9HbPaRJXL9A-163" target="Md-qzRlcw9HbPaRJXL9A-79">
          <mxGeometry relative="1" as="geometry">
            <Array as="points">
              <mxPoint x="100" y="50" />
              <mxPoint x="90" y="50" />
              <mxPoint x="90" y="340" />
            </Array>
          </mxGeometry>
        </mxCell>
        <mxCell id="Md-qzRlcw9HbPaRJXL9A-163" value="" style="triangle;whiteSpace=wrap;html=1;rotation=90;" vertex="1" parent="1">
          <mxGeometry x="90" y="10" width="20" height="30" as="geometry" />
        </mxCell>
        <mxCell id="Md-qzRlcw9HbPaRJXL9A-365" style="edgeStyle=orthogonalEdgeStyle;rounded=0;orthogonalLoop=1;jettySize=auto;html=1;exitX=1;exitY=0.5;exitDx=0;exitDy=0;entryX=0;entryY=0.5;entryDx=0;entryDy=0;" edge="1" parent="1" source="Md-qzRlcw9HbPaRJXL9A-165" target="Md-qzRlcw9HbPaRJXL9A-107">
          <mxGeometry relative="1" as="geometry">
            <Array as="points">
              <mxPoint x="40" y="50" />
              <mxPoint x="30" y="50" />
              <mxPoint x="30" y="350" />
              <mxPoint x="1360" y="350" />
              <mxPoint x="1360" y="340" />
            </Array>
          </mxGeometry>
        </mxCell>
        <mxCell id="Md-qzRlcw9HbPaRJXL9A-165" value="" style="triangle;whiteSpace=wrap;html=1;rotation=90;" vertex="1" parent="1">
          <mxGeometry x="30" y="10" width="20" height="30" as="geometry" />
        </mxCell>
        <mxCell id="Md-qzRlcw9HbPaRJXL9A-325" style="edgeStyle=orthogonalEdgeStyle;rounded=0;orthogonalLoop=1;jettySize=auto;html=1;exitX=1;exitY=0.5;exitDx=0;exitDy=0;entryX=1;entryY=0.5;entryDx=0;entryDy=0;" edge="1" parent="1" source="Md-qzRlcw9HbPaRJXL9A-167" target="Md-qzRlcw9HbPaRJXL9A-87">
          <mxGeometry relative="1" as="geometry">
            <Array as="points">
              <mxPoint x="-20" y="50" />
              <mxPoint x="-30" y="50" />
              <mxPoint x="-30" y="180" />
            </Array>
          </mxGeometry>
        </mxCell>
        <mxCell id="Md-qzRlcw9HbPaRJXL9A-167" value="" style="triangle;whiteSpace=wrap;html=1;rotation=90;" vertex="1" parent="1">
          <mxGeometry x="-30" y="10" width="20" height="30" as="geometry" />
        </mxCell>
        <mxCell id="Md-qzRlcw9HbPaRJXL9A-357" style="edgeStyle=orthogonalEdgeStyle;rounded=0;orthogonalLoop=1;jettySize=auto;html=1;exitX=1;exitY=0.5;exitDx=0;exitDy=0;entryX=0;entryY=0.5;entryDx=0;entryDy=0;" edge="1" parent="1" source="Md-qzRlcw9HbPaRJXL9A-169" target="Md-qzRlcw9HbPaRJXL9A-115">
          <mxGeometry relative="1" as="geometry">
            <Array as="points">
              <mxPoint x="-80" y="50" />
              <mxPoint x="-90" y="50" />
              <mxPoint x="-90" y="190" />
              <mxPoint x="1360" y="190" />
              <mxPoint x="1360" y="180" />
            </Array>
          </mxGeometry>
        </mxCell>
        <mxCell id="Md-qzRlcw9HbPaRJXL9A-169" value="" style="triangle;whiteSpace=wrap;html=1;rotation=90;" vertex="1" parent="1">
          <mxGeometry x="-90" y="10" width="20" height="30" as="geometry" />
        </mxCell>
        <mxCell id="Md-qzRlcw9HbPaRJXL9A-350" style="edgeStyle=orthogonalEdgeStyle;rounded=0;orthogonalLoop=1;jettySize=auto;html=1;exitX=1;exitY=0.5;exitDx=0;exitDy=0;entryX=1;entryY=0.5;entryDx=0;entryDy=0;" edge="1" parent="1" source="Md-qzRlcw9HbPaRJXL9A-170" target="Md-qzRlcw9HbPaRJXL9A-306">
          <mxGeometry relative="1" as="geometry">
            <Array as="points">
              <mxPoint x="-140" y="50" />
              <mxPoint x="-150" y="50" />
              <mxPoint x="-150" y="680" />
            </Array>
          </mxGeometry>
        </mxCell>
        <mxCell id="Md-qzRlcw9HbPaRJXL9A-170" value="" style="triangle;whiteSpace=wrap;html=1;rotation=90;" vertex="1" parent="1">
          <mxGeometry x="-150" y="10" width="20" height="30" as="geometry" />
        </mxCell>
        <mxCell id="Md-qzRlcw9HbPaRJXL9A-385" style="edgeStyle=orthogonalEdgeStyle;rounded=0;orthogonalLoop=1;jettySize=auto;html=1;exitX=1;exitY=0.5;exitDx=0;exitDy=0;entryX=0;entryY=0.5;entryDx=0;entryDy=0;" edge="1" parent="1" source="Md-qzRlcw9HbPaRJXL9A-172" target="Md-qzRlcw9HbPaRJXL9A-312">
          <mxGeometry relative="1" as="geometry">
            <Array as="points">
              <mxPoint x="-200" y="50" />
              <mxPoint x="-210" y="50" />
              <mxPoint x="-210" y="690" />
              <mxPoint x="1360" y="690" />
              <mxPoint x="1360" y="680" />
            </Array>
          </mxGeometry>
        </mxCell>
        <mxCell id="Md-qzRlcw9HbPaRJXL9A-172" value="" style="triangle;whiteSpace=wrap;html=1;rotation=90;" vertex="1" parent="1">
          <mxGeometry x="-210" y="10" width="20" height="30" as="geometry" />
        </mxCell>
        <mxCell id="Md-qzRlcw9HbPaRJXL9A-342" style="edgeStyle=orthogonalEdgeStyle;rounded=0;orthogonalLoop=1;jettySize=auto;html=1;exitX=1;exitY=0.5;exitDx=0;exitDy=0;entryX=1;entryY=0.5;entryDx=0;entryDy=0;" edge="1" parent="1" source="Md-qzRlcw9HbPaRJXL9A-174" target="Md-qzRlcw9HbPaRJXL9A-70">
          <mxGeometry relative="1" as="geometry">
            <Array as="points">
              <mxPoint x="-260" y="50" />
              <mxPoint x="-270" y="50" />
              <mxPoint x="-270" y="520" />
            </Array>
          </mxGeometry>
        </mxCell>
        <mxCell id="Md-qzRlcw9HbPaRJXL9A-174" value="" style="triangle;whiteSpace=wrap;html=1;rotation=90;" vertex="1" parent="1">
          <mxGeometry x="-270" y="10" width="20" height="30" as="geometry" />
        </mxCell>
        <mxCell id="Md-qzRlcw9HbPaRJXL9A-374" style="edgeStyle=orthogonalEdgeStyle;rounded=0;orthogonalLoop=1;jettySize=auto;html=1;exitX=1;exitY=0.5;exitDx=0;exitDy=0;entryX=0;entryY=0.5;entryDx=0;entryDy=0;" edge="1" parent="1" source="Md-qzRlcw9HbPaRJXL9A-176" target="Md-qzRlcw9HbPaRJXL9A-98">
          <mxGeometry relative="1" as="geometry">
            <Array as="points">
              <mxPoint x="-320" y="50" />
              <mxPoint x="-330" y="50" />
              <mxPoint x="-330" y="530" />
              <mxPoint x="1360" y="530" />
              <mxPoint x="1360" y="520" />
            </Array>
          </mxGeometry>
        </mxCell>
        <mxCell id="Md-qzRlcw9HbPaRJXL9A-176" value="" style="triangle;whiteSpace=wrap;html=1;rotation=90;" vertex="1" parent="1">
          <mxGeometry x="-330" y="10" width="20" height="30" as="geometry" />
        </mxCell>
        <mxCell id="Md-qzRlcw9HbPaRJXL9A-334" style="edgeStyle=orthogonalEdgeStyle;rounded=0;orthogonalLoop=1;jettySize=auto;html=1;exitX=1;exitY=0.5;exitDx=0;exitDy=0;entryX=1;entryY=0.5;entryDx=0;entryDy=0;" edge="1" parent="1" source="Md-qzRlcw9HbPaRJXL9A-178" target="Md-qzRlcw9HbPaRJXL9A-78">
          <mxGeometry relative="1" as="geometry">
            <Array as="points">
              <mxPoint x="-380" y="50" />
              <mxPoint x="-390" y="50" />
              <mxPoint x="-390" y="360" />
            </Array>
          </mxGeometry>
        </mxCell>
        <mxCell id="Md-qzRlcw9HbPaRJXL9A-178" value="" style="triangle;whiteSpace=wrap;html=1;rotation=90;" vertex="1" parent="1">
          <mxGeometry x="-390" y="10" width="20" height="30" as="geometry" />
        </mxCell>
        <mxCell id="Md-qzRlcw9HbPaRJXL9A-366" style="edgeStyle=orthogonalEdgeStyle;rounded=0;orthogonalLoop=1;jettySize=auto;html=1;exitX=1;exitY=0.5;exitDx=0;exitDy=0;entryX=0;entryY=0.5;entryDx=0;entryDy=0;" edge="1" parent="1" source="Md-qzRlcw9HbPaRJXL9A-180" target="Md-qzRlcw9HbPaRJXL9A-106">
          <mxGeometry relative="1" as="geometry">
            <Array as="points">
              <mxPoint x="-440" y="50" />
              <mxPoint x="-450" y="50" />
              <mxPoint x="-450" y="370" />
              <mxPoint x="1360" y="370" />
              <mxPoint x="1360" y="360" />
            </Array>
          </mxGeometry>
        </mxCell>
        <mxCell id="Md-qzRlcw9HbPaRJXL9A-180" value="" style="triangle;whiteSpace=wrap;html=1;rotation=90;" vertex="1" parent="1">
          <mxGeometry x="-450" y="10" width="20" height="30" as="geometry" />
        </mxCell>
        <mxCell id="Md-qzRlcw9HbPaRJXL9A-354" style="edgeStyle=orthogonalEdgeStyle;rounded=0;orthogonalLoop=1;jettySize=auto;html=1;exitX=1;exitY=0.5;exitDx=0;exitDy=0;entryX=0;entryY=0.5;entryDx=0;entryDy=0;" edge="1" parent="1" source="Md-qzRlcw9HbPaRJXL9A-182" target="Md-qzRlcw9HbPaRJXL9A-117">
          <mxGeometry relative="1" as="geometry">
            <Array as="points">
              <mxPoint x="-560" y="130" />
              <mxPoint x="1360" y="130" />
              <mxPoint x="1360" y="120" />
            </Array>
          </mxGeometry>
        </mxCell>
        <mxCell id="Md-qzRlcw9HbPaRJXL9A-182" value="" style="triangle;whiteSpace=wrap;html=1;rotation=-90;" vertex="1" parent="1">
          <mxGeometry x="-570" y="720" width="20" height="30" as="geometry" />
        </mxCell>
        <mxCell id="Md-qzRlcw9HbPaRJXL9A-322" style="edgeStyle=orthogonalEdgeStyle;rounded=0;orthogonalLoop=1;jettySize=auto;html=1;exitX=1;exitY=0.5;exitDx=0;exitDy=0;entryX=1;entryY=0.5;entryDx=0;entryDy=0;" edge="1" parent="1" source="Md-qzRlcw9HbPaRJXL9A-184" target="Md-qzRlcw9HbPaRJXL9A-89">
          <mxGeometry relative="1" as="geometry" />
        </mxCell>
        <mxCell id="Md-qzRlcw9HbPaRJXL9A-184" value="" style="triangle;whiteSpace=wrap;html=1;rotation=-90;" vertex="1" parent="1">
          <mxGeometry x="-510" y="720" width="20" height="30" as="geometry" />
        </mxCell>
        <mxCell id="Md-qzRlcw9HbPaRJXL9A-368" style="edgeStyle=orthogonalEdgeStyle;rounded=0;orthogonalLoop=1;jettySize=auto;html=1;exitX=1;exitY=0.5;exitDx=0;exitDy=0;entryX=0;entryY=0.5;entryDx=0;entryDy=0;" edge="1" parent="1" source="Md-qzRlcw9HbPaRJXL9A-186" target="Md-qzRlcw9HbPaRJXL9A-104">
          <mxGeometry relative="1" as="geometry">
            <Array as="points">
              <mxPoint x="640" y="410" />
              <mxPoint x="1360" y="410" />
              <mxPoint x="1360" y="400" />
            </Array>
          </mxGeometry>
        </mxCell>
        <mxCell id="Md-qzRlcw9HbPaRJXL9A-186" value="" style="triangle;whiteSpace=wrap;html=1;rotation=-90;" vertex="1" parent="1">
          <mxGeometry x="630" y="720" width="20" height="30" as="geometry" />
        </mxCell>
        <mxCell id="Md-qzRlcw9HbPaRJXL9A-336" style="edgeStyle=orthogonalEdgeStyle;rounded=0;orthogonalLoop=1;jettySize=auto;html=1;exitX=1;exitY=0.5;exitDx=0;exitDy=0;entryX=1;entryY=0.5;entryDx=0;entryDy=0;" edge="1" parent="1" source="Md-qzRlcw9HbPaRJXL9A-188" target="Md-qzRlcw9HbPaRJXL9A-76">
          <mxGeometry relative="1" as="geometry" />
        </mxCell>
        <mxCell id="Md-qzRlcw9HbPaRJXL9A-188" value="" style="triangle;whiteSpace=wrap;html=1;rotation=-90;" vertex="1" parent="1">
          <mxGeometry x="690" y="720" width="20" height="30" as="geometry" />
        </mxCell>
        <mxCell id="Md-qzRlcw9HbPaRJXL9A-376" style="edgeStyle=orthogonalEdgeStyle;rounded=0;orthogonalLoop=1;jettySize=auto;html=1;exitX=1;exitY=0.5;exitDx=0;exitDy=0;entryX=0;entryY=0.5;entryDx=0;entryDy=0;" edge="1" parent="1" source="Md-qzRlcw9HbPaRJXL9A-190" target="Md-qzRlcw9HbPaRJXL9A-94">
          <mxGeometry relative="1" as="geometry">
            <Array as="points">
              <mxPoint x="760" y="570" />
              <mxPoint x="1360" y="570" />
              <mxPoint x="1360" y="560" />
            </Array>
          </mxGeometry>
        </mxCell>
        <mxCell id="Md-qzRlcw9HbPaRJXL9A-190" value="" style="triangle;whiteSpace=wrap;html=1;rotation=-90;" vertex="1" parent="1">
          <mxGeometry x="750" y="720" width="20" height="30" as="geometry" />
        </mxCell>
        <mxCell id="Md-qzRlcw9HbPaRJXL9A-344" style="edgeStyle=orthogonalEdgeStyle;rounded=0;orthogonalLoop=1;jettySize=auto;html=1;exitX=1;exitY=0.5;exitDx=0;exitDy=0;entryX=1;entryY=0.5;entryDx=0;entryDy=0;" edge="1" parent="1" source="Md-qzRlcw9HbPaRJXL9A-191" target="Md-qzRlcw9HbPaRJXL9A-66">
          <mxGeometry relative="1" as="geometry" />
        </mxCell>
        <mxCell id="Md-qzRlcw9HbPaRJXL9A-191" value="" style="triangle;whiteSpace=wrap;html=1;rotation=-90;" vertex="1" parent="1">
          <mxGeometry x="810" y="720" width="20" height="30" as="geometry" />
        </mxCell>
        <mxCell id="Md-qzRlcw9HbPaRJXL9A-343" style="edgeStyle=orthogonalEdgeStyle;rounded=0;orthogonalLoop=1;jettySize=auto;html=1;exitX=1;exitY=0.5;exitDx=0;exitDy=0;entryX=1;entryY=0.5;entryDx=0;entryDy=0;" edge="1" parent="1" source="Md-qzRlcw9HbPaRJXL9A-192" target="Md-qzRlcw9HbPaRJXL9A-68">
          <mxGeometry relative="1" as="geometry" />
        </mxCell>
        <mxCell id="Md-qzRlcw9HbPaRJXL9A-192" value="" style="triangle;whiteSpace=wrap;html=1;rotation=-90;" vertex="1" parent="1">
          <mxGeometry x="1290" y="720" width="20" height="30" as="geometry" />
        </mxCell>
        <mxCell id="Md-qzRlcw9HbPaRJXL9A-375" style="edgeStyle=orthogonalEdgeStyle;rounded=0;orthogonalLoop=1;jettySize=auto;html=1;exitX=1;exitY=0.5;exitDx=0;exitDy=0;entryX=0;entryY=0.5;entryDx=0;entryDy=0;" edge="1" parent="1" source="Md-qzRlcw9HbPaRJXL9A-194" target="Md-qzRlcw9HbPaRJXL9A-96">
          <mxGeometry relative="1" as="geometry">
            <Array as="points">
              <mxPoint x="1240" y="550" />
              <mxPoint x="1360" y="550" />
              <mxPoint x="1360" y="540" />
            </Array>
          </mxGeometry>
        </mxCell>
        <mxCell id="Md-qzRlcw9HbPaRJXL9A-194" value="" style="triangle;whiteSpace=wrap;html=1;rotation=-90;" vertex="1" parent="1">
          <mxGeometry x="1230" y="720" width="20" height="30" as="geometry" />
        </mxCell>
        <mxCell id="Md-qzRlcw9HbPaRJXL9A-335" style="edgeStyle=orthogonalEdgeStyle;rounded=0;orthogonalLoop=1;jettySize=auto;html=1;exitX=1;exitY=0.5;exitDx=0;exitDy=0;entryX=1;entryY=0.5;entryDx=0;entryDy=0;" edge="1" parent="1" source="Md-qzRlcw9HbPaRJXL9A-196" target="Md-qzRlcw9HbPaRJXL9A-77">
          <mxGeometry relative="1" as="geometry" />
        </mxCell>
        <mxCell id="Md-qzRlcw9HbPaRJXL9A-196" value="" style="triangle;whiteSpace=wrap;html=1;rotation=-90;" vertex="1" parent="1">
          <mxGeometry x="1170" y="720" width="20" height="30" as="geometry" />
        </mxCell>
        <mxCell id="Md-qzRlcw9HbPaRJXL9A-367" style="edgeStyle=orthogonalEdgeStyle;rounded=0;orthogonalLoop=1;jettySize=auto;html=1;exitX=1;exitY=0.5;exitDx=0;exitDy=0;entryX=0;entryY=0.5;entryDx=0;entryDy=0;" edge="1" parent="1" source="Md-qzRlcw9HbPaRJXL9A-198" target="Md-qzRlcw9HbPaRJXL9A-105">
          <mxGeometry relative="1" as="geometry">
            <Array as="points">
              <mxPoint x="1120" y="390" />
              <mxPoint x="1360" y="390" />
              <mxPoint x="1360" y="380" />
            </Array>
          </mxGeometry>
        </mxCell>
        <mxCell id="Md-qzRlcw9HbPaRJXL9A-198" value="" style="triangle;whiteSpace=wrap;html=1;rotation=-90;" vertex="1" parent="1">
          <mxGeometry x="1110" y="720" width="20" height="30" as="geometry" />
        </mxCell>
        <mxCell id="Md-qzRlcw9HbPaRJXL9A-327" style="edgeStyle=orthogonalEdgeStyle;rounded=0;orthogonalLoop=1;jettySize=auto;html=1;exitX=1;exitY=0.5;exitDx=0;exitDy=0;entryX=1;entryY=0.5;entryDx=0;entryDy=0;" edge="1" parent="1" source="Md-qzRlcw9HbPaRJXL9A-200" target="Md-qzRlcw9HbPaRJXL9A-85">
          <mxGeometry relative="1" as="geometry" />
        </mxCell>
        <mxCell id="Md-qzRlcw9HbPaRJXL9A-200" value="" style="triangle;whiteSpace=wrap;html=1;rotation=-90;" vertex="1" parent="1">
          <mxGeometry x="1050" y="720" width="20" height="30" as="geometry" />
        </mxCell>
        <mxCell id="Md-qzRlcw9HbPaRJXL9A-359" style="edgeStyle=orthogonalEdgeStyle;rounded=0;orthogonalLoop=1;jettySize=auto;html=1;exitX=1;exitY=0.5;exitDx=0;exitDy=0;entryX=0;entryY=0.5;entryDx=0;entryDy=0;" edge="1" parent="1" source="Md-qzRlcw9HbPaRJXL9A-202" target="Md-qzRlcw9HbPaRJXL9A-113">
          <mxGeometry relative="1" as="geometry">
            <Array as="points">
              <mxPoint x="1000" y="230" />
              <mxPoint x="1360" y="230" />
              <mxPoint x="1360" y="220" />
            </Array>
          </mxGeometry>
        </mxCell>
        <mxCell id="Md-qzRlcw9HbPaRJXL9A-202" value="" style="triangle;whiteSpace=wrap;html=1;rotation=-90;" vertex="1" parent="1">
          <mxGeometry x="990" y="720" width="20" height="30" as="geometry" />
        </mxCell>
        <mxCell id="Md-qzRlcw9HbPaRJXL9A-319" style="edgeStyle=orthogonalEdgeStyle;rounded=0;orthogonalLoop=1;jettySize=auto;html=1;exitX=1;exitY=0.5;exitDx=0;exitDy=0;entryX=1;entryY=0.5;entryDx=0;entryDy=0;" edge="1" parent="1" source="Md-qzRlcw9HbPaRJXL9A-204" target="Md-qzRlcw9HbPaRJXL9A-65">
          <mxGeometry relative="1" as="geometry" />
        </mxCell>
        <mxCell id="Md-qzRlcw9HbPaRJXL9A-204" value="" style="triangle;whiteSpace=wrap;html=1;rotation=-90;" vertex="1" parent="1">
          <mxGeometry x="930" y="720" width="20" height="30" as="geometry" />
        </mxCell>
        <mxCell id="Md-qzRlcw9HbPaRJXL9A-351" style="edgeStyle=orthogonalEdgeStyle;rounded=0;orthogonalLoop=1;jettySize=auto;html=1;exitX=1;exitY=0.5;exitDx=0;exitDy=0;entryX=0;entryY=0.5;entryDx=0;entryDy=0;" edge="1" parent="1" source="Md-qzRlcw9HbPaRJXL9A-206" target="Md-qzRlcw9HbPaRJXL9A-93">
          <mxGeometry relative="1" as="geometry">
            <Array as="points">
              <mxPoint x="880" y="70" />
              <mxPoint x="1360" y="70" />
              <mxPoint x="1360" y="60" />
            </Array>
          </mxGeometry>
        </mxCell>
        <mxCell id="Md-qzRlcw9HbPaRJXL9A-206" value="" style="triangle;whiteSpace=wrap;html=1;rotation=-90;" vertex="1" parent="1">
          <mxGeometry x="870" y="720" width="20" height="30" as="geometry" />
        </mxCell>
        <mxCell id="Md-qzRlcw9HbPaRJXL9A-328" style="edgeStyle=orthogonalEdgeStyle;rounded=0;orthogonalLoop=1;jettySize=auto;html=1;exitX=1;exitY=0.5;exitDx=0;exitDy=0;entryX=1;entryY=0.5;entryDx=0;entryDy=0;" edge="1" parent="1" source="Md-qzRlcw9HbPaRJXL9A-208" target="Md-qzRlcw9HbPaRJXL9A-84">
          <mxGeometry relative="1" as="geometry" />
        </mxCell>
        <mxCell id="Md-qzRlcw9HbPaRJXL9A-208" value="" style="triangle;whiteSpace=wrap;html=1;rotation=-90;" vertex="1" parent="1">
          <mxGeometry x="570" y="720" width="20" height="30" as="geometry" />
        </mxCell>
        <mxCell id="Md-qzRlcw9HbPaRJXL9A-360" style="edgeStyle=orthogonalEdgeStyle;rounded=0;orthogonalLoop=1;jettySize=auto;html=1;exitX=1;exitY=0.5;exitDx=0;exitDy=0;entryX=0;entryY=0.5;entryDx=0;entryDy=0;" edge="1" parent="1" source="Md-qzRlcw9HbPaRJXL9A-210" target="Md-qzRlcw9HbPaRJXL9A-112">
          <mxGeometry relative="1" as="geometry">
            <Array as="points">
              <mxPoint x="520" y="250" />
              <mxPoint x="1360" y="250" />
              <mxPoint x="1360" y="240" />
            </Array>
          </mxGeometry>
        </mxCell>
        <mxCell id="Md-qzRlcw9HbPaRJXL9A-210" value="" style="triangle;whiteSpace=wrap;html=1;rotation=-180;direction=south;" vertex="1" parent="1">
          <mxGeometry x="505" y="725" width="30" height="20" as="geometry" />
        </mxCell>
        <mxCell id="Md-qzRlcw9HbPaRJXL9A-320" style="edgeStyle=orthogonalEdgeStyle;rounded=0;orthogonalLoop=1;jettySize=auto;html=1;exitX=1;exitY=0.5;exitDx=0;exitDy=0;entryX=1;entryY=0.5;entryDx=0;entryDy=0;" edge="1" parent="1" source="Md-qzRlcw9HbPaRJXL9A-212" target="Md-qzRlcw9HbPaRJXL9A-92">
          <mxGeometry relative="1" as="geometry" />
        </mxCell>
        <mxCell id="Md-qzRlcw9HbPaRJXL9A-212" value="" style="triangle;whiteSpace=wrap;html=1;rotation=-90;" vertex="1" parent="1">
          <mxGeometry x="450" y="720" width="20" height="30" as="geometry" />
        </mxCell>
        <mxCell id="Md-qzRlcw9HbPaRJXL9A-337" style="edgeStyle=orthogonalEdgeStyle;rounded=0;orthogonalLoop=1;jettySize=auto;html=1;exitX=1;exitY=0.5;exitDx=0;exitDy=0;entryX=1;entryY=0.5;entryDx=0;entryDy=0;" edge="1" parent="1" source="Md-qzRlcw9HbPaRJXL9A-214" target="Md-qzRlcw9HbPaRJXL9A-75">
          <mxGeometry relative="1" as="geometry" />
        </mxCell>
        <mxCell id="Md-qzRlcw9HbPaRJXL9A-214" value="" style="triangle;whiteSpace=wrap;html=1;rotation=-90;" vertex="1" parent="1">
          <mxGeometry x="210" y="720" width="20" height="30" as="geometry" />
        </mxCell>
        <mxCell id="Md-qzRlcw9HbPaRJXL9A-352" style="edgeStyle=orthogonalEdgeStyle;rounded=0;orthogonalLoop=1;jettySize=auto;html=1;exitX=1;exitY=0.5;exitDx=0;exitDy=0;entryX=0;entryY=0.5;entryDx=0;entryDy=0;" edge="1" parent="1" source="Md-qzRlcw9HbPaRJXL9A-216" target="Md-qzRlcw9HbPaRJXL9A-120">
          <mxGeometry relative="1" as="geometry">
            <Array as="points">
              <mxPoint x="400" y="90" />
              <mxPoint x="1360" y="90" />
              <mxPoint x="1360" y="80" />
            </Array>
          </mxGeometry>
        </mxCell>
        <mxCell id="Md-qzRlcw9HbPaRJXL9A-216" value="" style="triangle;whiteSpace=wrap;html=1;rotation=90;direction=west;" vertex="1" parent="1">
          <mxGeometry x="390" y="720" width="20" height="30" as="geometry" />
        </mxCell>
        <mxCell id="Md-qzRlcw9HbPaRJXL9A-345" style="edgeStyle=orthogonalEdgeStyle;rounded=0;orthogonalLoop=1;jettySize=auto;html=1;exitX=1;exitY=0.5;exitDx=0;exitDy=0;entryX=1;entryY=0.5;entryDx=0;entryDy=0;" edge="1" parent="1" source="Md-qzRlcw9HbPaRJXL9A-217" target="Md-qzRlcw9HbPaRJXL9A-69">
          <mxGeometry relative="1" as="geometry" />
        </mxCell>
        <mxCell id="Md-qzRlcw9HbPaRJXL9A-217" value="" style="triangle;whiteSpace=wrap;html=1;rotation=-90;" vertex="1" parent="1">
          <mxGeometry x="330" y="720" width="20" height="30" as="geometry" />
        </mxCell>
        <mxCell id="Md-qzRlcw9HbPaRJXL9A-377" style="edgeStyle=orthogonalEdgeStyle;rounded=0;orthogonalLoop=1;jettySize=auto;html=1;exitX=1;exitY=0.5;exitDx=0;exitDy=0;entryX=0;entryY=0.5;entryDx=0;entryDy=0;" edge="1" parent="1" source="Md-qzRlcw9HbPaRJXL9A-219" target="Md-qzRlcw9HbPaRJXL9A-97">
          <mxGeometry relative="1" as="geometry">
            <Array as="points">
              <mxPoint x="280" y="590" />
              <mxPoint x="1360" y="590" />
              <mxPoint x="1360" y="580" />
            </Array>
          </mxGeometry>
        </mxCell>
        <mxCell id="Md-qzRlcw9HbPaRJXL9A-219" value="" style="triangle;whiteSpace=wrap;html=1;rotation=-90;" vertex="1" parent="1">
          <mxGeometry x="270" y="720" width="20" height="30" as="geometry" />
        </mxCell>
        <mxCell id="Md-qzRlcw9HbPaRJXL9A-369" style="edgeStyle=orthogonalEdgeStyle;rounded=0;orthogonalLoop=1;jettySize=auto;html=1;exitX=1;exitY=0.5;exitDx=0;exitDy=0;entryX=0;entryY=0.5;entryDx=0;entryDy=0;" edge="1" parent="1" source="Md-qzRlcw9HbPaRJXL9A-221" target="Md-qzRlcw9HbPaRJXL9A-103">
          <mxGeometry relative="1" as="geometry">
            <Array as="points">
              <mxPoint x="160" y="430" />
              <mxPoint x="1360" y="430" />
              <mxPoint x="1360" y="420" />
            </Array>
          </mxGeometry>
        </mxCell>
        <mxCell id="Md-qzRlcw9HbPaRJXL9A-221" value="" style="triangle;whiteSpace=wrap;html=1;rotation=-90;" vertex="1" parent="1">
          <mxGeometry x="150" y="720" width="20" height="30" as="geometry" />
        </mxCell>
        <mxCell id="Md-qzRlcw9HbPaRJXL9A-329" style="edgeStyle=orthogonalEdgeStyle;rounded=0;orthogonalLoop=1;jettySize=auto;html=1;exitX=1;exitY=0.5;exitDx=0;exitDy=0;entryX=1;entryY=0.5;entryDx=0;entryDy=0;" edge="1" parent="1" source="Md-qzRlcw9HbPaRJXL9A-223" target="Md-qzRlcw9HbPaRJXL9A-83">
          <mxGeometry relative="1" as="geometry" />
        </mxCell>
        <mxCell id="Md-qzRlcw9HbPaRJXL9A-223" value="" style="triangle;whiteSpace=wrap;html=1;rotation=-90;" vertex="1" parent="1">
          <mxGeometry x="90" y="720" width="20" height="30" as="geometry" />
        </mxCell>
        <mxCell id="Md-qzRlcw9HbPaRJXL9A-361" style="edgeStyle=orthogonalEdgeStyle;rounded=0;orthogonalLoop=1;jettySize=auto;html=1;exitX=1;exitY=0.5;exitDx=0;exitDy=0;entryX=0;entryY=0.5;entryDx=0;entryDy=0;" edge="1" parent="1" source="Md-qzRlcw9HbPaRJXL9A-225" target="Md-qzRlcw9HbPaRJXL9A-111">
          <mxGeometry relative="1" as="geometry">
            <Array as="points">
              <mxPoint x="40" y="270" />
              <mxPoint x="1360" y="270" />
              <mxPoint x="1360" y="260" />
            </Array>
          </mxGeometry>
        </mxCell>
        <mxCell id="Md-qzRlcw9HbPaRJXL9A-225" value="" style="triangle;whiteSpace=wrap;html=1;rotation=-90;" vertex="1" parent="1">
          <mxGeometry x="30" y="720" width="20" height="30" as="geometry" />
        </mxCell>
        <mxCell id="Md-qzRlcw9HbPaRJXL9A-321" style="edgeStyle=orthogonalEdgeStyle;rounded=0;orthogonalLoop=1;jettySize=auto;html=1;exitX=1;exitY=0.5;exitDx=0;exitDy=0;entryX=1;entryY=0.5;entryDx=0;entryDy=0;" edge="1" parent="1" source="Md-qzRlcw9HbPaRJXL9A-227" target="Md-qzRlcw9HbPaRJXL9A-91">
          <mxGeometry relative="1" as="geometry" />
        </mxCell>
        <mxCell id="Md-qzRlcw9HbPaRJXL9A-227" value="" style="triangle;whiteSpace=wrap;html=1;rotation=-90;" vertex="1" parent="1">
          <mxGeometry x="-30" y="720" width="20" height="30" as="geometry" />
        </mxCell>
        <mxCell id="Md-qzRlcw9HbPaRJXL9A-353" style="edgeStyle=orthogonalEdgeStyle;rounded=0;orthogonalLoop=1;jettySize=auto;html=1;exitX=1;exitY=0.5;exitDx=0;exitDy=0;entryX=0;entryY=0.5;entryDx=0;entryDy=0;" edge="1" parent="1" source="Md-qzRlcw9HbPaRJXL9A-229" target="Md-qzRlcw9HbPaRJXL9A-119">
          <mxGeometry relative="1" as="geometry">
            <Array as="points">
              <mxPoint x="-80" y="110" />
              <mxPoint x="1360" y="110" />
              <mxPoint x="1360" y="100" />
            </Array>
          </mxGeometry>
        </mxCell>
        <mxCell id="Md-qzRlcw9HbPaRJXL9A-229" value="" style="triangle;whiteSpace=wrap;html=1;rotation=-90;" vertex="1" parent="1">
          <mxGeometry x="-90" y="720" width="20" height="30" as="geometry" />
        </mxCell>
        <mxCell id="Md-qzRlcw9HbPaRJXL9A-346" style="edgeStyle=orthogonalEdgeStyle;rounded=0;orthogonalLoop=1;jettySize=auto;html=1;exitX=1;exitY=0.5;exitDx=0;exitDy=0;entryX=1;entryY=0.5;entryDx=0;entryDy=0;" edge="1" parent="1" source="Md-qzRlcw9HbPaRJXL9A-230" target="Md-qzRlcw9HbPaRJXL9A-67">
          <mxGeometry relative="1" as="geometry" />
        </mxCell>
        <mxCell id="Md-qzRlcw9HbPaRJXL9A-230" value="" style="triangle;whiteSpace=wrap;html=1;rotation=-90;" vertex="1" parent="1">
          <mxGeometry x="-150" y="720" width="20" height="30" as="geometry" />
        </mxCell>
        <mxCell id="Md-qzRlcw9HbPaRJXL9A-378" style="edgeStyle=orthogonalEdgeStyle;rounded=0;orthogonalLoop=1;jettySize=auto;html=1;exitX=1;exitY=0.5;exitDx=0;exitDy=0;entryX=0;entryY=0.5;entryDx=0;entryDy=0;" edge="1" parent="1" source="Md-qzRlcw9HbPaRJXL9A-232" target="Md-qzRlcw9HbPaRJXL9A-95">
          <mxGeometry relative="1" as="geometry">
            <Array as="points">
              <mxPoint x="-200" y="610" />
              <mxPoint x="1360" y="610" />
              <mxPoint x="1360" y="600" />
            </Array>
          </mxGeometry>
        </mxCell>
        <mxCell id="Md-qzRlcw9HbPaRJXL9A-232" value="" style="triangle;whiteSpace=wrap;html=1;rotation=-90;" vertex="1" parent="1">
          <mxGeometry x="-210" y="720" width="20" height="30" as="geometry" />
        </mxCell>
        <mxCell id="Md-qzRlcw9HbPaRJXL9A-338" style="edgeStyle=orthogonalEdgeStyle;rounded=0;orthogonalLoop=1;jettySize=auto;html=1;exitX=1;exitY=0.5;exitDx=0;exitDy=0;entryX=1;entryY=0.5;entryDx=0;entryDy=0;" edge="1" parent="1" source="Md-qzRlcw9HbPaRJXL9A-234" target="Md-qzRlcw9HbPaRJXL9A-74">
          <mxGeometry relative="1" as="geometry" />
        </mxCell>
        <mxCell id="Md-qzRlcw9HbPaRJXL9A-234" value="" style="triangle;whiteSpace=wrap;html=1;rotation=-90;" vertex="1" parent="1">
          <mxGeometry x="-270" y="720" width="20" height="30" as="geometry" />
        </mxCell>
        <mxCell id="Md-qzRlcw9HbPaRJXL9A-370" style="edgeStyle=orthogonalEdgeStyle;rounded=0;orthogonalLoop=1;jettySize=auto;html=1;exitX=1;exitY=0.5;exitDx=0;exitDy=0;entryX=0;entryY=0.5;entryDx=0;entryDy=0;" edge="1" parent="1" source="Md-qzRlcw9HbPaRJXL9A-236" target="Md-qzRlcw9HbPaRJXL9A-102">
          <mxGeometry relative="1" as="geometry">
            <Array as="points">
              <mxPoint x="-320" y="450" />
              <mxPoint x="1360" y="450" />
              <mxPoint x="1360" y="440" />
            </Array>
          </mxGeometry>
        </mxCell>
        <mxCell id="Md-qzRlcw9HbPaRJXL9A-236" value="" style="triangle;whiteSpace=wrap;html=1;rotation=-180;direction=south;" vertex="1" parent="1">
          <mxGeometry x="-335" y="725" width="30" height="20" as="geometry" />
        </mxCell>
        <mxCell id="Md-qzRlcw9HbPaRJXL9A-330" style="edgeStyle=orthogonalEdgeStyle;rounded=0;orthogonalLoop=1;jettySize=auto;html=1;exitX=1;exitY=0.5;exitDx=0;exitDy=0;entryX=1;entryY=0.5;entryDx=0;entryDy=0;" edge="1" parent="1" source="Md-qzRlcw9HbPaRJXL9A-238" target="Md-qzRlcw9HbPaRJXL9A-82">
          <mxGeometry relative="1" as="geometry" />
        </mxCell>
        <mxCell id="Md-qzRlcw9HbPaRJXL9A-238" value="" style="triangle;whiteSpace=wrap;html=1;rotation=-90;" vertex="1" parent="1">
          <mxGeometry x="-390" y="720" width="20" height="30" as="geometry" />
        </mxCell>
        <mxCell id="Md-qzRlcw9HbPaRJXL9A-362" style="edgeStyle=orthogonalEdgeStyle;rounded=0;orthogonalLoop=1;jettySize=auto;html=1;exitX=1;exitY=0.5;exitDx=0;exitDy=0;entryX=0;entryY=0.5;entryDx=0;entryDy=0;" edge="1" parent="1" source="Md-qzRlcw9HbPaRJXL9A-240" target="Md-qzRlcw9HbPaRJXL9A-110">
          <mxGeometry relative="1" as="geometry">
            <Array as="points">
              <mxPoint x="-440" y="290" />
              <mxPoint x="1360" y="290" />
              <mxPoint x="1360" y="280" />
            </Array>
          </mxGeometry>
        </mxCell>
        <mxCell id="Md-qzRlcw9HbPaRJXL9A-240" value="" style="triangle;whiteSpace=wrap;html=1;rotation=-90;" vertex="1" parent="1">
          <mxGeometry x="-450" y="720" width="20" height="30" as="geometry" />
        </mxCell>
        <mxCell id="Md-qzRlcw9HbPaRJXL9A-306" value="p_in[32]" style="text;html=1;align=center;verticalAlign=middle;whiteSpace=wrap;rounded=0;" vertex="1" parent="1">
          <mxGeometry x="-690" y="670" width="60" height="20" as="geometry" />
        </mxCell>
        <mxCell id="Md-qzRlcw9HbPaRJXL9A-308" value="p_in[33]" style="text;html=1;align=center;verticalAlign=middle;whiteSpace=wrap;rounded=0;" vertex="1" parent="1">
          <mxGeometry x="-690" y="650" width="60" height="20" as="geometry" />
        </mxCell>
        <mxCell id="Md-qzRlcw9HbPaRJXL9A-310" value="p_in[34]" style="text;html=1;align=center;verticalAlign=middle;whiteSpace=wrap;rounded=0;" vertex="1" parent="1">
          <mxGeometry x="-690" y="630" width="60" height="20" as="geometry" />
        </mxCell>
        <mxCell id="Md-qzRlcw9HbPaRJXL9A-311" value="p_in[35]" style="text;html=1;align=center;verticalAlign=middle;whiteSpace=wrap;rounded=0;" vertex="1" parent="1">
          <mxGeometry x="-690" y="610" width="60" height="20" as="geometry" />
        </mxCell>
        <mxCell id="Md-qzRlcw9HbPaRJXL9A-312" value="p_in[0]" style="text;html=1;align=center;verticalAlign=middle;whiteSpace=wrap;rounded=0;" vertex="1" parent="1">
          <mxGeometry x="1380" y="670" width="60" height="20" as="geometry" />
        </mxCell>
        <mxCell id="Md-qzRlcw9HbPaRJXL9A-314" value="p_in[1]" style="text;html=1;align=center;verticalAlign=middle;whiteSpace=wrap;rounded=0;" vertex="1" parent="1">
          <mxGeometry x="1380" y="650" width="60" height="20" as="geometry" />
        </mxCell>
        <mxCell id="Md-qzRlcw9HbPaRJXL9A-316" value="p_in[2]" style="text;html=1;align=center;verticalAlign=middle;whiteSpace=wrap;rounded=0;" vertex="1" parent="1">
          <mxGeometry x="1380" y="630" width="60" height="20" as="geometry" />
        </mxCell>
        <mxCell id="Md-qzRlcw9HbPaRJXL9A-317" value="p_in[3]" style="text;html=1;align=center;verticalAlign=middle;whiteSpace=wrap;rounded=0;" vertex="1" parent="1">
          <mxGeometry x="1380" y="610" width="60" height="20" as="geometry" />
        </mxCell>
      </root>
    </mxGraphModel>
  </diagram>
</mxfile>
